<svg viewBox="0 0 400 300" fill="none" xmlns="http://www.w3.org/2000/svg"><path opacity=".39" d="M338.625 211.883c30.811-43.343-15.494-43.608-17.91-65.949-5.87-54.29-43.784-91.298-85.393-77.629-55.944 18.371-51.203 75.188-99.197 63.158-61.654-15.414-85.83 27.448-37.9 83.493 25.003 29.238-16.075 34.381-16.075 34.381l214.269 1.002c26.567-29.844-5.974-1.077 13.624-9.889 24.491-10.993 8.306-.046 28.582-28.567Z" fill="#C2D3F9"/><path d="M270.896 90.661H147.638a7.248 7.248 0 0 0-7.248 7.248v108.07a7.248 7.248 0 0 0 7.248 7.248h123.258a7.248 7.248 0 0 0 7.248-7.248V97.909a7.248 7.248 0 0 0-7.248-7.248Z" fill="#2F54EB" stroke="#231815" stroke-width=".456" stroke-miterlimit="10"/><g style="mix-blend-mode:multiply"><g style="mix-blend-mode:multiply" opacity=".59"><path d="M172.801 183.663a.641.641 0 1 0 .001-1.283.641.641 0 0 0-.001 1.283ZM170.33 183.663a.642.642 0 1 0 0-1.284.642.642 0 0 0 0 1.284ZM167.859 183.663a.641.641 0 1 0 0-1.282.641.641 0 0 0 0 1.282ZM165.388 183.663a.641.641 0 1 0 0-1.282.641.641 0 0 0 0 1.282ZM162.917 183.663a.641.641 0 1 0 0-1.282.641.641 0 0 0 0 1.282ZM160.45 183.663a.641.641 0 1 0 .001-1.283.641.641 0 0 0-.001 1.283ZM157.979 183.663a.641.641 0 1 0 .001-1.283.641.641 0 0 0-.001 1.283ZM155.508 183.663a.642.642 0 1 0 0-1.284.642.642 0 0 0 0 1.284ZM153.037 183.663a.641.641 0 1 0 0-1.282.641.641 0 0 0 0 1.282ZM172.801 181.492a.641.641 0 1 0 .002-1.282.641.641 0 0 0-.002 1.282ZM170.33 181.492a.642.642 0 1 0 0-1.284.642.642 0 0 0 0 1.284ZM167.859 181.492a.641.641 0 1 0 0-1.282.641.641 0 0 0 0 1.282ZM165.388 181.492a.641.641 0 1 0 0-1.282.641.641 0 0 0 0 1.282ZM162.917 181.492a.641.641 0 1 0 0-1.282.641.641 0 0 0 0 1.282ZM160.45 181.492a.641.641 0 1 0 .002-1.282.641.641 0 0 0-.002 1.282ZM157.979 181.492a.641.641 0 1 0 .002-1.282.641.641 0 0 0-.002 1.282ZM155.508 181.492a.642.642 0 1 0 0-1.284.642.642 0 0 0 0 1.284ZM153.037 181.492a.641.641 0 1 0 0-1.282.641.641 0 0 0 0 1.282ZM172.801 179.322a.641.641 0 1 0 .002-1.282.641.641 0 0 0-.002 1.282ZM170.33 179.322a.642.642 0 1 0 0-1.284.642.642 0 0 0 0 1.284ZM167.859 179.322a.641.641 0 1 0 0-1.282.641.641 0 0 0 0 1.282ZM165.388 179.322a.641.641 0 1 0 0-1.282.641.641 0 0 0 0 1.282ZM162.917 179.322a.641.641 0 1 0 0-1.282.641.641 0 0 0 0 1.282ZM160.45 179.322a.641.641 0 1 0 .002-1.282.641.641 0 0 0-.002 1.282ZM157.979 179.322a.641.641 0 1 0 .002-1.282.641.641 0 0 0-.002 1.282ZM155.508 179.322a.642.642 0 1 0 0-1.284.642.642 0 0 0 0 1.284ZM153.037 179.322a.641.641 0 1 0 0-1.282.641.641 0 0 0 0 1.282ZM172.801 177.152a.642.642 0 1 0 0-1.284.642.642 0 0 0 0 1.284ZM170.33 177.152a.643.643 0 1 0-.001-1.285.643.643 0 0 0 .001 1.285ZM167.859 177.152a.642.642 0 1 0-.002-1.284.642.642 0 0 0 .002 1.284ZM165.388 177.152a.642.642 0 1 0-.002-1.284.642.642 0 0 0 .002 1.284ZM162.917 177.152a.642.642 0 1 0-.002-1.284.642.642 0 0 0 .002 1.284ZM160.45 177.152a.642.642 0 1 0 0-1.284.642.642 0 0 0 0 1.284ZM157.979 177.152a.642.642 0 1 0 0-1.284.642.642 0 0 0 0 1.284ZM155.508 177.152a.643.643 0 1 0-.001-1.285.643.643 0 0 0 .001 1.285ZM153.037 177.152a.642.642 0 1 0-.002-1.284.642.642 0 0 0 .002 1.284ZM172.801 174.981a.641.641 0 1 0 .002-1.282.641.641 0 0 0-.002 1.282ZM170.33 174.981a.642.642 0 1 0 0-1.284.642.642 0 0 0 0 1.284ZM167.859 174.981a.641.641 0 1 0 0-1.282.641.641 0 0 0 0 1.282ZM165.388 174.981a.641.641 0 1 0 0-1.282.641.641 0 0 0 0 1.282ZM162.917 174.981a.641.641 0 1 0 0-1.282.641.641 0 0 0 0 1.282ZM160.45 174.981a.641.641 0 1 0 .002-1.282.641.641 0 0 0-.002 1.282ZM157.979 174.981a.641.641 0 1 0 .002-1.282.641.641 0 0 0-.002 1.282ZM155.508 174.981a.642.642 0 1 0 0-1.284.642.642 0 0 0 0 1.284ZM153.037 174.981a.641.641 0 1 0 0-1.282.641.641 0 0 0 0 1.282ZM172.801 172.811a.641.641 0 1 0 .001-1.283.641.641 0 0 0-.001 1.283ZM170.33 172.811a.642.642 0 1 0 0-1.284.642.642 0 0 0 0 1.284ZM167.859 172.811a.641.641 0 1 0 0-1.282.641.641 0 0 0 0 1.282ZM165.388 172.811a.641.641 0 1 0 0-1.282.641.641 0 0 0 0 1.282ZM162.917 172.811a.641.641 0 1 0 0-1.282.641.641 0 0 0 0 1.282ZM160.45 172.811a.641.641 0 1 0 .001-1.283.641.641 0 0 0-.001 1.283ZM157.979 172.811a.641.641 0 1 0 .001-1.283.641.641 0 0 0-.001 1.283ZM155.508 172.811a.642.642 0 1 0 0-1.284.642.642 0 0 0 0 1.284ZM153.037 172.811a.641.641 0 1 0 0-1.282.641.641 0 0 0 0 1.282ZM172.801 170.636a.642.642 0 1 0 0-1.284.642.642 0 0 0 0 1.284ZM170.33 170.636a.643.643 0 1 0-.001-1.285.643.643 0 0 0 .001 1.285ZM167.859 170.636a.642.642 0 1 0-.002-1.284.642.642 0 0 0 .002 1.284ZM165.388 170.636a.642.642 0 1 0-.002-1.284.642.642 0 0 0 .002 1.284ZM162.917 170.636a.642.642 0 1 0-.002-1.284.642.642 0 0 0 .002 1.284ZM160.45 170.636a.642.642 0 1 0 0-1.284.642.642 0 0 0 0 1.284ZM157.979 170.636a.642.642 0 1 0 0-1.284.642.642 0 0 0 0 1.284ZM155.508 170.636a.643.643 0 1 0-.001-1.285.643.643 0 0 0 .001 1.285ZM153.037 170.636a.642.642 0 1 0-.002-1.284.642.642 0 0 0 .002 1.284ZM172.801 168.465a.641.641 0 1 0 .001-1.283.641.641 0 0 0-.001 1.283ZM170.33 168.465a.642.642 0 1 0 0-1.284.642.642 0 0 0 0 1.284ZM167.859 168.465a.641.641 0 1 0 0-1.282.641.641 0 0 0 0 1.282ZM165.388 168.465a.641.641 0 1 0 0-1.282.641.641 0 0 0 0 1.282ZM162.917 168.465a.641.641 0 1 0 0-1.282.641.641 0 0 0 0 1.282ZM160.45 168.465a.641.641 0 1 0 .001-1.283.641.641 0 0 0-.001 1.283ZM157.979 168.465a.641.641 0 1 0 .001-1.283.641.641 0 0 0-.001 1.283ZM155.508 168.465a.642.642 0 1 0 0-1.284.642.642 0 0 0 0 1.284ZM153.037 168.465a.641.641 0 1 0 0-1.282.641.641 0 0 0 0 1.282Z" fill="#9FA0A0" style="mix-blend-mode:multiply" opacity=".59"/></g><g style="mix-blend-mode:multiply" opacity=".59"><path d="M172.801 165.779a.642.642 0 1 0 0-1.284.642.642 0 0 0 0 1.284ZM170.33 165.779a.643.643 0 1 0-.001-1.285.643.643 0 0 0 .001 1.285ZM167.859 165.779a.642.642 0 1 0-.002-1.284.642.642 0 0 0 .002 1.284ZM165.388 165.779a.642.642 0 1 0-.002-1.284.642.642 0 0 0 .002 1.284ZM162.917 165.779a.642.642 0 1 0-.002-1.284.642.642 0 0 0 .002 1.284ZM160.45 165.779a.642.642 0 1 0 0-1.284.642.642 0 0 0 0 1.284ZM157.979 165.779a.642.642 0 1 0 0-1.284.642.642 0 0 0 0 1.284ZM155.508 165.779a.643.643 0 1 0-.001-1.285.643.643 0 0 0 .001 1.285ZM153.037 165.779a.642.642 0 1 0-.002-1.284.642.642 0 0 0 .002 1.284ZM172.801 163.608a.641.641 0 1 0 .002-1.282.641.641 0 0 0-.002 1.282ZM170.33 163.608a.642.642 0 1 0 0-1.284.642.642 0 0 0 0 1.284ZM167.859 163.608a.641.641 0 1 0 0-1.282.641.641 0 0 0 0 1.282ZM165.388 163.608a.641.641 0 1 0 0-1.282.641.641 0 0 0 0 1.282ZM162.917 163.608a.641.641 0 1 0 0-1.282.641.641 0 0 0 0 1.282ZM160.45 163.608a.641.641 0 1 0 .002-1.282.641.641 0 0 0-.002 1.282ZM157.979 163.608a.641.641 0 1 0 .002-1.282.641.641 0 0 0-.002 1.282ZM155.508 163.608a.642.642 0 1 0 0-1.284.642.642 0 0 0 0 1.284ZM153.037 163.608a.641.641 0 1 0 0-1.282.641.641 0 0 0 0 1.282ZM172.801 161.433a.642.642 0 1 0 0-1.284.642.642 0 0 0 0 1.284ZM170.33 161.433a.643.643 0 1 0-.001-1.285.643.643 0 0 0 .001 1.285ZM167.859 161.433a.642.642 0 1 0-.002-1.284.642.642 0 0 0 .002 1.284ZM165.388 161.433a.642.642 0 1 0-.002-1.284.642.642 0 0 0 .002 1.284ZM162.917 161.433a.642.642 0 1 0-.002-1.284.642.642 0 0 0 .002 1.284ZM160.45 161.433a.642.642 0 1 0 0-1.284.642.642 0 0 0 0 1.284ZM157.979 161.433a.642.642 0 1 0 0-1.284.642.642 0 0 0 0 1.284ZM155.508 161.433a.643.643 0 1 0-.001-1.285.643.643 0 0 0 .001 1.285ZM153.037 161.433a.642.642 0 1 0-.002-1.284.642.642 0 0 0 .002 1.284ZM172.801 159.262a.641.641 0 1 0 .002-1.282.641.641 0 0 0-.002 1.282ZM170.33 159.262a.642.642 0 1 0 0-1.284.642.642 0 0 0 0 1.284ZM167.859 159.262a.641.641 0 1 0 0-1.282.641.641 0 0 0 0 1.282ZM165.388 159.262a.641.641 0 1 0 0-1.282.641.641 0 0 0 0 1.282ZM162.917 159.262a.641.641 0 1 0 0-1.282.641.641 0 0 0 0 1.282ZM160.45 159.262a.641.641 0 1 0 .002-1.282.641.641 0 0 0-.002 1.282ZM157.979 159.262a.641.641 0 1 0 .002-1.282.641.641 0 0 0-.002 1.282ZM155.508 159.262a.642.642 0 1 0 0-1.284.642.642 0 0 0 0 1.284ZM153.037 159.262a.641.641 0 1 0 0-1.282.641.641 0 0 0 0 1.282ZM172.801 157.092a.641.641 0 1 0 .001-1.283.641.641 0 0 0-.001 1.283ZM170.33 157.092a.642.642 0 1 0 0-1.284.642.642 0 0 0 0 1.284ZM167.859 157.092a.641.641 0 1 0 0-1.282.641.641 0 0 0 0 1.282ZM165.388 157.092a.641.641 0 1 0 0-1.282.641.641 0 0 0 0 1.282ZM162.917 157.092a.641.641 0 1 0 0-1.282.641.641 0 0 0 0 1.282ZM160.45 157.092a.641.641 0 1 0 .001-1.283.641.641 0 0 0-.001 1.283ZM157.979 157.092a.641.641 0 1 0 .001-1.283.641.641 0 0 0-.001 1.283ZM155.508 157.092a.642.642 0 1 0 0-1.284.642.642 0 0 0 0 1.284ZM153.037 157.092a.641.641 0 1 0 0-1.282.641.641 0 0 0 0 1.282ZM172.801 154.921a.641.641 0 1 0 .002-1.282.641.641 0 0 0-.002 1.282ZM170.33 154.921a.642.642 0 1 0 0-1.284.642.642 0 0 0 0 1.284ZM167.859 154.921a.641.641 0 1 0 0-1.282.641.641 0 0 0 0 1.282ZM165.388 154.921a.641.641 0 1 0 0-1.282.641.641 0 0 0 0 1.282ZM162.917 154.921a.641.641 0 1 0 0-1.282.641.641 0 0 0 0 1.282ZM160.45 154.921a.641.641 0 1 0 .002-1.282.641.641 0 0 0-.002 1.282ZM157.979 154.921a.641.641 0 1 0 .002-1.282.641.641 0 0 0-.002 1.282ZM155.508 154.921a.642.642 0 1 0 0-1.284.642.642 0 0 0 0 1.284ZM153.037 154.921a.641.641 0 1 0 0-1.282.641.641 0 0 0 0 1.282ZM172.801 152.751a.641.641 0 1 0 .001-1.283.641.641 0 0 0-.001 1.283ZM170.33 152.751a.642.642 0 1 0 0-1.284.642.642 0 0 0 0 1.284ZM167.859 152.751a.641.641 0 1 0 0-1.282.641.641 0 0 0 0 1.282ZM165.388 152.751a.641.641 0 1 0 0-1.282.641.641 0 0 0 0 1.282ZM162.917 152.751a.641.641 0 1 0 0-1.282.641.641 0 0 0 0 1.282ZM160.45 152.751a.641.641 0 1 0 .001-1.283.641.641 0 0 0-.001 1.283ZM157.979 152.751a.641.641 0 1 0 .001-1.283.641.641 0 0 0-.001 1.283ZM155.508 152.751a.642.642 0 1 0 0-1.284.642.642 0 0 0 0 1.284ZM153.037 152.751a.641.641 0 1 0 0-1.282.641.641 0 0 0 0 1.282ZM172.801 150.581a.642.642 0 1 0 0-1.284.642.642 0 0 0 0 1.284ZM170.33 150.581a.643.643 0 1 0-.001-1.285.643.643 0 0 0 .001 1.285ZM167.859 150.581a.642.642 0 1 0-.002-1.284.642.642 0 0 0 .002 1.284ZM165.388 150.581a.642.642 0 1 0-.002-1.284.642.642 0 0 0 .002 1.284ZM162.917 150.581a.642.642 0 1 0-.002-1.284.642.642 0 0 0 .002 1.284ZM160.45 150.581a.642.642 0 1 0 0-1.284.642.642 0 0 0 0 1.284ZM157.979 150.581a.642.642 0 1 0 0-1.284.642.642 0 0 0 0 1.284ZM155.508 150.581a.643.643 0 1 0-.001-1.285.643.643 0 0 0 .001 1.285ZM153.037 150.581a.642.642 0 1 0-.002-1.284.642.642 0 0 0 .002 1.284Z" fill="#9FA0A0" style="mix-blend-mode:multiply" opacity=".59"/></g><g style="mix-blend-mode:multiply" opacity=".59"><path d="M172.801 148.26a.641.641 0 1 0 .001-1.283.641.641 0 0 0-.001 1.283ZM170.33 148.26a.642.642 0 1 0 0-1.284.642.642 0 0 0 0 1.284ZM167.859 148.26a.641.641 0 1 0 0-1.282.641.641 0 0 0 0 1.282ZM165.388 148.26a.641.641 0 1 0 0-1.282.641.641 0 0 0 0 1.282ZM162.917 148.26a.641.641 0 1 0 0-1.282.641.641 0 0 0 0 1.282ZM160.45 148.26a.641.641 0 1 0 .001-1.283.641.641 0 0 0-.001 1.283ZM157.979 148.26a.641.641 0 1 0 .001-1.283.641.641 0 0 0-.001 1.283ZM155.508 148.26a.642.642 0 1 0 0-1.284.642.642 0 0 0 0 1.284ZM153.037 148.26a.641.641 0 1 0 0-1.282.641.641 0 0 0 0 1.282ZM172.801 146.089a.641.641 0 1 0 .002-1.282.641.641 0 0 0-.002 1.282ZM170.33 146.089a.642.642 0 1 0 0-1.284.642.642 0 0 0 0 1.284ZM167.859 146.089a.641.641 0 1 0 0-1.282.641.641 0 0 0 0 1.282ZM165.388 146.089a.641.641 0 1 0 0-1.282.641.641 0 0 0 0 1.282ZM162.917 146.089a.641.641 0 1 0 0-1.282.641.641 0 0 0 0 1.282ZM160.45 146.089a.641.641 0 1 0 .002-1.282.641.641 0 0 0-.002 1.282ZM157.979 146.089a.641.641 0 1 0 .002-1.282.641.641 0 0 0-.002 1.282ZM155.508 146.089a.642.642 0 1 0 0-1.284.642.642 0 0 0 0 1.284ZM153.037 146.089a.641.641 0 1 0 0-1.282.641.641 0 0 0 0 1.282ZM172.801 143.919a.641.641 0 1 0 .001-1.283.641.641 0 0 0-.001 1.283ZM170.33 143.919a.642.642 0 1 0 0-1.284.642.642 0 0 0 0 1.284ZM167.859 143.919a.641.641 0 1 0 0-1.282.641.641 0 0 0 0 1.282ZM165.388 143.919a.641.641 0 1 0 0-1.282.641.641 0 0 0 0 1.282ZM162.917 143.919a.641.641 0 1 0 0-1.282.641.641 0 0 0 0 1.282ZM160.45 143.919a.641.641 0 1 0 .001-1.283.641.641 0 0 0-.001 1.283ZM157.979 143.919a.641.641 0 1 0 .001-1.283.641.641 0 0 0-.001 1.283ZM155.508 143.919a.642.642 0 1 0 0-1.284.642.642 0 0 0 0 1.284ZM153.037 143.919a.641.641 0 1 0 0-1.282.641.641 0 0 0 0 1.282ZM172.801 141.749a.642.642 0 1 0 0-1.284.642.642 0 0 0 0 1.284ZM170.33 141.749a.643.643 0 1 0-.001-1.285.643.643 0 0 0 .001 1.285ZM167.859 141.749a.642.642 0 1 0-.002-1.284.642.642 0 0 0 .002 1.284ZM165.388 141.749a.642.642 0 1 0-.002-1.284.642.642 0 0 0 .002 1.284ZM162.917 141.749a.642.642 0 1 0-.002-1.284.642.642 0 0 0 .002 1.284ZM160.45 141.749a.642.642 0 1 0 0-1.284.642.642 0 0 0 0 1.284ZM157.979 141.749a.642.642 0 1 0 0-1.284.642.642 0 0 0 0 1.284ZM155.508 141.749a.643.643 0 1 0-.001-1.285.643.643 0 0 0 .001 1.285ZM153.037 141.749a.642.642 0 1 0-.002-1.284.642.642 0 0 0 .002 1.284ZM172.801 139.578a.641.641 0 1 0 .002-1.282.641.641 0 0 0-.002 1.282ZM170.33 139.578a.642.642 0 1 0 0-1.284.642.642 0 0 0 0 1.284ZM167.859 139.578a.641.641 0 1 0 0-1.282.641.641 0 0 0 0 1.282ZM165.388 139.578a.641.641 0 1 0 0-1.282.641.641 0 0 0 0 1.282ZM162.917 139.578a.641.641 0 1 0 0-1.282.641.641 0 0 0 0 1.282ZM160.45 139.578a.641.641 0 1 0 .002-1.282.641.641 0 0 0-.002 1.282ZM157.979 139.578a.641.641 0 1 0 .002-1.282.641.641 0 0 0-.002 1.282ZM155.508 139.578a.642.642 0 1 0 0-1.284.642.642 0 0 0 0 1.284ZM153.037 139.578a.641.641 0 1 0 0-1.282.641.641 0 0 0 0 1.282ZM172.801 137.408a.642.642 0 1 0 0-1.284.642.642 0 0 0 0 1.284ZM170.33 137.408a.643.643 0 1 0-.001-1.285.643.643 0 0 0 .001 1.285ZM167.859 137.408a.642.642 0 1 0-.002-1.284.642.642 0 0 0 .002 1.284ZM165.388 137.408a.642.642 0 1 0-.002-1.284.642.642 0 0 0 .002 1.284ZM162.917 137.408a.642.642 0 1 0-.002-1.284.642.642 0 0 0 .002 1.284ZM160.45 137.408a.642.642 0 1 0 0-1.284.642.642 0 0 0 0 1.284ZM157.979 137.408a.642.642 0 1 0 0-1.284.642.642 0 0 0 0 1.284ZM155.508 137.408a.643.643 0 1 0-.001-1.285.643.643 0 0 0 .001 1.285ZM153.037 137.408a.642.642 0 1 0-.002-1.284.642.642 0 0 0 .002 1.284ZM172.801 135.237a.641.641 0 1 0 .002-1.282.641.641 0 0 0-.002 1.282ZM170.33 135.237a.642.642 0 1 0 0-1.284.642.642 0 0 0 0 1.284ZM167.859 135.237a.641.641 0 1 0 0-1.282.641.641 0 0 0 0 1.282ZM165.388 135.237a.641.641 0 1 0 0-1.282.641.641 0 0 0 0 1.282ZM162.917 135.237a.641.641 0 1 0 0-1.282.641.641 0 0 0 0 1.282ZM160.45 135.237a.641.641 0 1 0 .002-1.282.641.641 0 0 0-.002 1.282ZM157.979 135.237a.641.641 0 1 0 .002-1.282.641.641 0 0 0-.002 1.282ZM155.508 135.237a.642.642 0 1 0 0-1.284.642.642 0 0 0 0 1.284ZM153.037 135.237a.641.641 0 1 0 0-1.282.641.641 0 0 0 0 1.282ZM172.801 133.067a.641.641 0 1 0 .001-1.283.641.641 0 0 0-.001 1.283ZM170.33 133.067a.642.642 0 1 0 0-1.284.642.642 0 0 0 0 1.284ZM167.859 133.067a.641.641 0 1 0 0-1.282.641.641 0 0 0 0 1.282ZM165.388 133.067a.641.641 0 1 0 0-1.282.641.641 0 0 0 0 1.282ZM162.917 133.067a.641.641 0 1 0 0-1.282.641.641 0 0 0 0 1.282ZM160.45 133.067a.641.641 0 1 0 .001-1.283.641.641 0 0 0-.001 1.283ZM157.979 133.067a.641.641 0 1 0 .001-1.283.641.641 0 0 0-.001 1.283ZM155.508 133.067a.642.642 0 1 0 0-1.284.642.642 0 0 0 0 1.284ZM153.037 133.067a.641.641 0 1 0 0-1.282.641.641 0 0 0 0 1.282Z" fill="#9FA0A0" style="mix-blend-mode:multiply" opacity=".59"/></g><g style="mix-blend-mode:multiply" opacity=".59"><path d="M172.801 130.375a.641.641 0 1 0 .002-1.282.641.641 0 0 0-.002 1.282ZM170.33 130.375a.642.642 0 1 0 0-1.284.642.642 0 0 0 0 1.284ZM167.859 130.375a.641.641 0 1 0 0-1.282.641.641 0 0 0 0 1.282ZM165.388 130.375a.641.641 0 1 0 0-1.282.641.641 0 0 0 0 1.282ZM162.917 130.375a.641.641 0 1 0 0-1.282.641.641 0 0 0 0 1.282ZM160.45 130.375a.641.641 0 1 0 .002-1.282.641.641 0 0 0-.002 1.282ZM157.979 130.375a.641.641 0 1 0 .002-1.282.641.641 0 0 0-.002 1.282ZM155.508 130.375a.642.642 0 1 0 0-1.284.642.642 0 0 0 0 1.284ZM153.037 130.375a.641.641 0 1 0 0-1.282.641.641 0 0 0 0 1.282ZM172.801 128.205a.641.641 0 1 0 .001-1.283.641.641 0 0 0-.001 1.283ZM170.33 128.205a.642.642 0 1 0 0-1.284.642.642 0 0 0 0 1.284ZM167.859 128.205a.641.641 0 1 0 0-1.282.641.641 0 0 0 0 1.282ZM165.388 128.205a.641.641 0 1 0 0-1.282.641.641 0 0 0 0 1.282ZM162.917 128.205a.641.641 0 1 0 0-1.282.641.641 0 0 0 0 1.282ZM160.45 128.205a.641.641 0 1 0 .001-1.283.641.641 0 0 0-.001 1.283ZM157.979 128.205a.641.641 0 1 0 .001-1.283.641.641 0 0 0-.001 1.283ZM155.508 128.205a.642.642 0 1 0 0-1.284.642.642 0 0 0 0 1.284ZM153.037 128.205a.641.641 0 1 0 0-1.282.641.641 0 0 0 0 1.282ZM172.801 126.034a.641.641 0 1 0 .002-1.282.641.641 0 0 0-.002 1.282ZM170.33 126.034a.642.642 0 1 0 0-1.284.642.642 0 0 0 0 1.284ZM167.859 126.034a.641.641 0 1 0 0-1.282.641.641 0 0 0 0 1.282ZM165.388 126.034a.641.641 0 1 0 0-1.282.641.641 0 0 0 0 1.282ZM162.917 126.034a.641.641 0 1 0 0-1.282.641.641 0 0 0 0 1.282ZM160.45 126.034a.641.641 0 1 0 .002-1.282.641.641 0 0 0-.002 1.282ZM157.979 126.034a.641.641 0 1 0 .002-1.282.641.641 0 0 0-.002 1.282ZM155.508 126.034a.642.642 0 1 0 0-1.284.642.642 0 0 0 0 1.284ZM153.037 126.034a.641.641 0 1 0 0-1.282.641.641 0 0 0 0 1.282ZM172.801 123.864a.641.641 0 1 0 .001-1.283.641.641 0 0 0-.001 1.283ZM170.33 123.864a.642.642 0 1 0 0-1.284.642.642 0 0 0 0 1.284ZM167.859 123.864a.641.641 0 1 0 0-1.282.641.641 0 0 0 0 1.282ZM165.388 123.864a.641.641 0 1 0 0-1.282.641.641 0 0 0 0 1.282ZM162.917 123.864a.641.641 0 1 0 0-1.282.641.641 0 0 0 0 1.282ZM160.45 123.864a.641.641 0 1 0 .001-1.283.641.641 0 0 0-.001 1.283ZM157.979 123.864a.641.641 0 1 0 .001-1.283.641.641 0 0 0-.001 1.283ZM155.508 123.864a.642.642 0 1 0 0-1.284.642.642 0 0 0 0 1.284ZM153.037 123.864a.641.641 0 1 0 0-1.282.641.641 0 0 0 0 1.282ZM172.801 121.693a.641.641 0 1 0 .002-1.282.641.641 0 0 0-.002 1.282ZM170.33 121.693a.642.642 0 1 0 0-1.284.642.642 0 0 0 0 1.284ZM167.859 121.693a.641.641 0 1 0 0-1.282.641.641 0 0 0 0 1.282ZM165.388 121.693a.641.641 0 1 0 0-1.282.641.641 0 0 0 0 1.282ZM162.917 121.693a.641.641 0 1 0 0-1.282.641.641 0 0 0 0 1.282ZM160.45 121.693a.641.641 0 1 0 .002-1.282.641.641 0 0 0-.002 1.282ZM157.979 121.693a.641.641 0 1 0 .002-1.282.641.641 0 0 0-.002 1.282ZM155.508 121.693a.642.642 0 1 0 0-1.284.642.642 0 0 0 0 1.284ZM153.037 121.693a.641.641 0 1 0 0-1.282.641.641 0 0 0 0 1.282ZM172.801 119.523a.641.641 0 1 0 .002-1.282.641.641 0 0 0-.002 1.282ZM170.33 119.523a.642.642 0 1 0 0-1.284.642.642 0 0 0 0 1.284ZM167.859 119.523a.641.641 0 1 0 0-1.282.641.641 0 0 0 0 1.282ZM165.388 119.523a.641.641 0 1 0 0-1.282.641.641 0 0 0 0 1.282ZM162.917 119.523a.641.641 0 1 0 0-1.282.641.641 0 0 0 0 1.282ZM160.45 119.523a.641.641 0 1 0 .002-1.282.641.641 0 0 0-.002 1.282ZM157.979 119.523a.641.641 0 1 0 .002-1.282.641.641 0 0 0-.002 1.282ZM155.508 119.523a.642.642 0 1 0 0-1.284.642.642 0 0 0 0 1.284ZM153.037 119.523a.641.641 0 1 0 0-1.282.641.641 0 0 0 0 1.282ZM172.801 117.348a.642.642 0 1 0 0-1.284.642.642 0 0 0 0 1.284ZM170.33 117.348a.643.643 0 1 0-.001-1.285.643.643 0 0 0 .001 1.285ZM167.859 117.348a.642.642 0 1 0-.002-1.284.642.642 0 0 0 .002 1.284ZM165.388 117.348a.642.642 0 1 0-.002-1.284.642.642 0 0 0 .002 1.284ZM162.917 117.348a.642.642 0 1 0-.002-1.284.642.642 0 0 0 .002 1.284ZM160.45 117.348a.642.642 0 1 0 0-1.284.642.642 0 0 0 0 1.284ZM157.979 117.348a.642.642 0 1 0 0-1.284.642.642 0 0 0 0 1.284ZM155.508 117.348a.643.643 0 1 0-.001-1.285.643.643 0 0 0 .001 1.285ZM153.037 117.348a.642.642 0 1 0-.002-1.284.642.642 0 0 0 .002 1.284ZM172.801 115.177a.641.641 0 1 0 .002-1.282.641.641 0 0 0-.002 1.282ZM170.33 115.177a.642.642 0 1 0 0-1.284.642.642 0 0 0 0 1.284ZM167.859 115.177a.641.641 0 1 0 0-1.282.641.641 0 0 0 0 1.282ZM165.388 115.177a.641.641 0 1 0 0-1.282.641.641 0 0 0 0 1.282ZM162.917 115.177a.641.641 0 1 0 0-1.282.641.641 0 0 0 0 1.282ZM160.45 115.177a.641.641 0 1 0 .002-1.282.641.641 0 0 0-.002 1.282ZM157.979 115.177a.641.641 0 1 0 .002-1.282.641.641 0 0 0-.002 1.282ZM155.508 115.177a.642.642 0 1 0 0-1.284.642.642 0 0 0 0 1.284ZM153.037 115.177a.641.641 0 1 0 0-1.282.641.641 0 0 0 0 1.282ZM172.801 112.846a.641.641 0 1 0 .002-1.282.641.641 0 0 0-.002 1.282ZM170.33 112.846a.642.642 0 1 0 0-1.284.642.642 0 0 0 0 1.284ZM167.859 112.846a.641.641 0 1 0 0-1.282.641.641 0 0 0 0 1.282ZM165.388 112.846a.641.641 0 1 0 0-1.282.641.641 0 0 0 0 1.282ZM162.917 112.846a.641.641 0 1 0 0-1.282.641.641 0 0 0 0 1.282ZM160.45 112.846a.641.641 0 1 0 .002-1.282.641.641 0 0 0-.002 1.282ZM157.979 112.846a.641.641 0 1 0 .002-1.282.641.641 0 0 0-.002 1.282ZM155.508 112.846a.642.642 0 1 0 0-1.284.642.642 0 0 0 0 1.284ZM153.037 112.846a.641.641 0 1 0 0-1.282.641.641 0 0 0 0 1.282Z" fill="#9FA0A0" style="mix-blend-mode:multiply" opacity=".59"/></g></g><g style="mix-blend-mode:multiply"><g style="mix-blend-mode:multiply" opacity=".59"><path d="M195.247 203.728a.642.642 0 1 0 0-1.284.642.642 0 0 0 0 1.284ZM195.247 201.257a.642.642 0 1 0 0-1.284.642.642 0 0 0 0 1.284ZM195.247 198.786a.642.642 0 1 0 0-1.284.642.642 0 0 0 0 1.284ZM195.247 196.315a.643.643 0 1 0-.001-1.285.643.643 0 0 0 .001 1.285ZM195.247 193.844a.643.643 0 1 0-.001-1.285.643.643 0 0 0 .001 1.285ZM195.247 191.377a.642.642 0 1 0 0-1.284.642.642 0 0 0 0 1.284ZM195.247 188.906a.642.642 0 1 0 0-1.284.642.642 0 0 0 0 1.284ZM195.247 186.435a.642.642 0 1 0 0-1.284.642.642 0 0 0 0 1.284ZM195.247 183.964a.642.642 0 1 0 0-1.284.642.642 0 0 0 0 1.284ZM197.417 203.728a.641.641 0 1 0 .002-1.282.641.641 0 0 0-.002 1.282ZM197.417 201.257a.641.641 0 1 0 .001-1.283.641.641 0 0 0-.001 1.283ZM197.417 198.786a.641.641 0 1 0 .001-1.283.641.641 0 0 0-.001 1.283ZM197.417 196.315a.642.642 0 1 0 0-1.284.642.642 0 0 0 0 1.284ZM197.417 193.844a.642.642 0 1 0 0-1.284.642.642 0 0 0 0 1.284ZM197.417 191.377a.641.641 0 1 0 .002-1.282.641.641 0 0 0-.002 1.282ZM197.417 188.906a.641.641 0 1 0 .002-1.282.641.641 0 0 0-.002 1.282ZM197.417 186.435a.641.641 0 1 0 .001-1.283.641.641 0 0 0-.001 1.283ZM197.417 183.964a.641.641 0 1 0 .001-1.283.641.641 0 0 0-.001 1.283ZM199.588 203.728a.641.641 0 1 0 0-1.282.641.641 0 0 0 0 1.282ZM199.588 201.257a.641.641 0 1 0 0-1.282.641.641 0 0 0 0 1.282ZM199.588 198.786a.641.641 0 1 0 0-1.282.641.641 0 0 0 0 1.282ZM199.588 196.315a.642.642 0 1 0-.002-1.284.642.642 0 0 0 .002 1.284ZM199.588 193.844a.642.642 0 1 0-.002-1.284.642.642 0 0 0 .002 1.284ZM199.588 191.377a.641.641 0 1 0 0-1.282.641.641 0 0 0 0 1.282ZM199.588 188.906a.641.641 0 1 0 0-1.282.641.641 0 0 0 0 1.282ZM199.588 186.435a.641.641 0 1 0 0-1.282.641.641 0 0 0 0 1.282ZM199.588 183.964a.641.641 0 1 0 0-1.282.641.641 0 0 0 0 1.282ZM201.758 203.728a.641.641 0 1 0 .002-1.282.641.641 0 0 0-.002 1.282ZM201.758 201.257a.641.641 0 1 0 .001-1.283.641.641 0 0 0-.001 1.283ZM201.758 198.786a.641.641 0 1 0 .001-1.283.641.641 0 0 0-.001 1.283ZM201.758 196.315a.642.642 0 1 0 0-1.284.642.642 0 0 0 0 1.284ZM201.758 193.844a.642.642 0 1 0 0-1.284.642.642 0 0 0 0 1.284ZM201.758 191.377a.641.641 0 1 0 .002-1.282.641.641 0 0 0-.002 1.282ZM201.758 188.906a.641.641 0 1 0 .002-1.282.641.641 0 0 0-.002 1.282ZM201.758 186.435a.641.641 0 1 0 .001-1.283.641.641 0 0 0-.001 1.283ZM201.758 183.964a.641.641 0 1 0 .001-1.283.641.641 0 0 0-.001 1.283ZM203.934 203.728a.641.641 0 1 0 0-1.282.641.641 0 0 0 0 1.282ZM203.934 201.257a.641.641 0 1 0 0-1.282.641.641 0 0 0 0 1.282ZM203.934 198.786a.641.641 0 1 0 0-1.282.641.641 0 0 0 0 1.282ZM203.934 196.315a.642.642 0 1 0-.002-1.284.642.642 0 0 0 .002 1.284ZM203.934 193.844a.642.642 0 1 0-.002-1.284.642.642 0 0 0 .002 1.284ZM203.934 191.377a.641.641 0 1 0 0-1.282.641.641 0 0 0 0 1.282ZM203.934 188.906a.641.641 0 1 0 0-1.282.641.641 0 0 0 0 1.282ZM203.934 186.435a.641.641 0 1 0 0-1.282.641.641 0 0 0 0 1.282ZM203.934 183.964a.641.641 0 1 0 0-1.282.641.641 0 0 0 0 1.282ZM206.104 203.728a.641.641 0 1 0 .002-1.282.641.641 0 0 0-.002 1.282ZM206.104 201.257a.641.641 0 1 0 .001-1.283.641.641 0 0 0-.001 1.283ZM206.104 198.786a.641.641 0 1 0 .001-1.283.641.641 0 0 0-.001 1.283ZM206.104 196.315a.642.642 0 1 0 0-1.284.642.642 0 0 0 0 1.284ZM206.104 193.844a.642.642 0 1 0 0-1.284.642.642 0 0 0 0 1.284ZM206.104 191.377a.641.641 0 1 0 .002-1.282.641.641 0 0 0-.002 1.282ZM206.104 188.906a.641.641 0 1 0 .002-1.282.641.641 0 0 0-.002 1.282ZM206.104 186.435a.641.641 0 1 0 .001-1.283.641.641 0 0 0-.001 1.283ZM206.104 183.964a.641.641 0 1 0 .001-1.283.641.641 0 0 0-.001 1.283ZM208.275 203.728a.641.641 0 1 0 0-1.282.641.641 0 0 0 0 1.282ZM208.275 201.257a.641.641 0 1 0 0-1.282.641.641 0 0 0 0 1.282ZM208.275 198.786a.641.641 0 1 0 0-1.282.641.641 0 0 0 0 1.282ZM208.275 196.315a.642.642 0 1 0-.002-1.284.642.642 0 0 0 .002 1.284ZM208.275 193.844a.642.642 0 1 0-.002-1.284.642.642 0 0 0 .002 1.284ZM208.275 191.377a.641.641 0 1 0 0-1.282.641.641 0 0 0 0 1.282ZM208.275 188.906a.641.641 0 1 0 0-1.282.641.641 0 0 0 0 1.282ZM208.275 186.435a.641.641 0 1 0 0-1.282.641.641 0 0 0 0 1.282ZM208.275 183.964a.641.641 0 1 0 0-1.282.641.641 0 0 0 0 1.282ZM210.445 203.728a.642.642 0 1 0 0-1.284.642.642 0 0 0 0 1.284ZM210.445 201.257a.642.642 0 1 0 0-1.284.642.642 0 0 0 0 1.284ZM210.445 198.786a.642.642 0 1 0 0-1.284.642.642 0 0 0 0 1.284ZM210.445 196.315a.643.643 0 1 0-.001-1.285.643.643 0 0 0 .001 1.285ZM210.445 193.844a.643.643 0 1 0-.001-1.285.643.643 0 0 0 .001 1.285ZM210.445 191.377a.642.642 0 1 0 0-1.284.642.642 0 0 0 0 1.284ZM210.445 188.906a.642.642 0 1 0 0-1.284.642.642 0 0 0 0 1.284ZM210.445 186.435a.642.642 0 1 0 0-1.284.642.642 0 0 0 0 1.284ZM210.445 183.964a.642.642 0 1 0 0-1.284.642.642 0 0 0 0 1.284Z" fill="#B5B5B6" style="mix-blend-mode:multiply" opacity=".59"/></g><g style="mix-blend-mode:multiply" opacity=".59"><path d="M213.137 203.728a.641.641 0 1 0 0-1.282.641.641 0 0 0 0 1.282ZM213.137 201.257a.641.641 0 1 0 0-1.282.641.641 0 0 0 0 1.282ZM213.137 198.786a.641.641 0 1 0 0-1.282.641.641 0 0 0 0 1.282ZM213.137 196.315a.642.642 0 1 0-.002-1.284.642.642 0 0 0 .002 1.284ZM213.137 193.844a.642.642 0 1 0-.002-1.284.642.642 0 0 0 .002 1.284ZM213.137 191.377a.641.641 0 1 0 0-1.282.641.641 0 0 0 0 1.282ZM213.137 188.906a.641.641 0 1 0 0-1.282.641.641 0 0 0 0 1.282ZM213.137 186.435a.641.641 0 1 0 0-1.282.641.641 0 0 0 0 1.282ZM213.137 183.964a.641.641 0 1 0 0-1.282.641.641 0 0 0 0 1.282ZM215.307 203.728a.642.642 0 1 0 0-1.284.642.642 0 0 0 0 1.284ZM215.307 201.257a.642.642 0 1 0 0-1.284.642.642 0 0 0 0 1.284ZM215.307 198.786a.642.642 0 1 0 0-1.284.642.642 0 0 0 0 1.284ZM215.307 196.315a.643.643 0 1 0-.001-1.285.643.643 0 0 0 .001 1.285ZM215.307 193.844a.643.643 0 1 0-.001-1.285.643.643 0 0 0 .001 1.285ZM215.307 191.377a.642.642 0 1 0 0-1.284.642.642 0 0 0 0 1.284ZM215.307 188.906a.642.642 0 1 0 0-1.284.642.642 0 0 0 0 1.284ZM215.307 186.435a.642.642 0 1 0 0-1.284.642.642 0 0 0 0 1.284ZM215.307 183.964a.642.642 0 1 0 0-1.284.642.642 0 0 0 0 1.284ZM217.478 203.728a.641.641 0 1 0 0-1.282.641.641 0 0 0 0 1.282ZM217.478 201.257a.641.641 0 1 0 0-1.282.641.641 0 0 0 0 1.282ZM217.478 198.786a.641.641 0 1 0 0-1.282.641.641 0 0 0 0 1.282ZM217.478 196.315a.642.642 0 1 0-.002-1.284.642.642 0 0 0 .002 1.284ZM217.478 193.844a.642.642 0 1 0-.002-1.284.642.642 0 0 0 .002 1.284ZM217.478 191.377a.641.641 0 1 0 0-1.282.641.641 0 0 0 0 1.282ZM217.478 188.906a.641.641 0 1 0 0-1.282.641.641 0 0 0 0 1.282ZM217.478 186.435a.641.641 0 1 0 0-1.282.641.641 0 0 0 0 1.282ZM217.478 183.964a.641.641 0 1 0 0-1.282.641.641 0 0 0 0 1.282ZM219.648 203.728a.642.642 0 1 0 0-1.284.642.642 0 0 0 0 1.284ZM219.648 201.257a.642.642 0 1 0 0-1.284.642.642 0 0 0 0 1.284ZM219.648 198.786a.642.642 0 1 0 0-1.284.642.642 0 0 0 0 1.284ZM219.648 196.315a.643.643 0 1 0-.001-1.285.643.643 0 0 0 .001 1.285ZM219.648 193.844a.643.643 0 1 0-.001-1.285.643.643 0 0 0 .001 1.285ZM219.648 191.377a.642.642 0 1 0 0-1.284.642.642 0 0 0 0 1.284ZM219.648 188.906a.642.642 0 1 0 0-1.284.642.642 0 0 0 0 1.284ZM219.648 186.435a.642.642 0 1 0 0-1.284.642.642 0 0 0 0 1.284ZM219.648 183.964a.642.642 0 1 0 0-1.284.642.642 0 0 0 0 1.284ZM221.818 203.728a.641.641 0 1 0 .002-1.282.641.641 0 0 0-.002 1.282ZM221.818 201.257a.641.641 0 1 0 .001-1.283.641.641 0 0 0-.001 1.283ZM221.818 198.786a.641.641 0 1 0 .001-1.283.641.641 0 0 0-.001 1.283ZM221.818 196.315a.642.642 0 1 0 0-1.284.642.642 0 0 0 0 1.284ZM221.818 193.844a.642.642 0 1 0 0-1.284.642.642 0 0 0 0 1.284ZM221.818 191.377a.641.641 0 1 0 .002-1.282.641.641 0 0 0-.002 1.282ZM221.818 188.906a.641.641 0 1 0 .002-1.282.641.641 0 0 0-.002 1.282ZM221.818 186.435a.641.641 0 1 0 .001-1.283.641.641 0 0 0-.001 1.283ZM221.818 183.964a.641.641 0 1 0 .001-1.283.641.641 0 0 0-.001 1.283ZM223.989 203.728a.641.641 0 1 0 0-1.282.641.641 0 0 0 0 1.282ZM223.989 201.257a.641.641 0 1 0 0-1.282.641.641 0 0 0 0 1.282ZM223.989 198.786a.641.641 0 1 0 0-1.282.641.641 0 0 0 0 1.282ZM223.989 196.315a.642.642 0 1 0-.002-1.284.642.642 0 0 0 .002 1.284ZM223.989 193.844a.642.642 0 1 0-.002-1.284.642.642 0 0 0 .002 1.284ZM223.989 191.377a.641.641 0 1 0 0-1.282.641.641 0 0 0 0 1.282ZM223.989 188.906a.641.641 0 1 0 0-1.282.641.641 0 0 0 0 1.282ZM223.989 186.435a.641.641 0 1 0 0-1.282.641.641 0 0 0 0 1.282ZM223.989 183.964a.641.641 0 1 0 0-1.282.641.641 0 0 0 0 1.282ZM226.159 203.728a.641.641 0 1 0 .002-1.282.641.641 0 0 0-.002 1.282ZM226.159 201.257a.641.641 0 1 0 .001-1.283.641.641 0 0 0-.001 1.283ZM226.159 198.786a.641.641 0 1 0 .001-1.283.641.641 0 0 0-.001 1.283ZM226.159 196.315a.642.642 0 1 0 0-1.284.642.642 0 0 0 0 1.284ZM226.159 193.844a.642.642 0 1 0 0-1.284.642.642 0 0 0 0 1.284ZM226.159 191.377a.641.641 0 1 0 .002-1.282.641.641 0 0 0-.002 1.282ZM226.159 188.906a.641.641 0 1 0 .002-1.282.641.641 0 0 0-.002 1.282ZM226.159 186.435a.641.641 0 1 0 .001-1.283.641.641 0 0 0-.001 1.283ZM226.159 183.964a.641.641 0 1 0 .001-1.283.641.641 0 0 0-.001 1.283ZM228.33 203.728a.641.641 0 1 0 0-1.282.641.641 0 0 0 0 1.282ZM228.33 201.257a.641.641 0 1 0 0-1.282.641.641 0 0 0 0 1.282ZM228.33 198.786a.641.641 0 1 0 0-1.282.641.641 0 0 0 0 1.282ZM228.33 196.315a.642.642 0 1 0-.002-1.284.642.642 0 0 0 .002 1.284ZM228.33 193.844a.642.642 0 1 0-.002-1.284.642.642 0 0 0 .002 1.284ZM228.33 191.377a.641.641 0 1 0 0-1.282.641.641 0 0 0 0 1.282ZM228.33 188.906a.641.641 0 1 0 0-1.282.641.641 0 0 0 0 1.282ZM228.33 186.435a.641.641 0 1 0 0-1.282.641.641 0 0 0 0 1.282ZM228.33 183.964a.641.641 0 1 0 0-1.282.641.641 0 0 0 0 1.282Z" fill="#B5B5B6" style="mix-blend-mode:multiply" opacity=".59"/></g><g style="mix-blend-mode:multiply" opacity=".59"><path d="M230.65 203.728a.641.641 0 1 0 .002-1.282.641.641 0 0 0-.002 1.282ZM230.65 201.257a.641.641 0 1 0 .001-1.283.641.641 0 0 0-.001 1.283ZM230.65 198.786a.641.641 0 1 0 .001-1.283.641.641 0 0 0-.001 1.283ZM230.65 196.315a.642.642 0 1 0 0-1.284.642.642 0 0 0 0 1.284ZM230.65 193.844a.642.642 0 1 0 0-1.284.642.642 0 0 0 0 1.284ZM230.65 191.377a.641.641 0 1 0 .002-1.282.641.641 0 0 0-.002 1.282ZM230.65 188.906a.641.641 0 1 0 .002-1.282.641.641 0 0 0-.002 1.282ZM230.65 186.435a.641.641 0 1 0 .001-1.283.641.641 0 0 0-.001 1.283ZM230.65 183.964a.641.641 0 1 0 .001-1.283.641.641 0 0 0-.001 1.283ZM232.821 203.728a.641.641 0 1 0 0-1.282.641.641 0 0 0 0 1.282ZM232.821 201.257a.641.641 0 1 0 0-1.282.641.641 0 0 0 0 1.282ZM232.821 198.786a.641.641 0 1 0 0-1.282.641.641 0 0 0 0 1.282ZM232.821 196.315a.642.642 0 1 0-.002-1.284.642.642 0 0 0 .002 1.284ZM232.821 193.844a.642.642 0 1 0-.002-1.284.642.642 0 0 0 .002 1.284ZM232.821 191.377a.641.641 0 1 0 0-1.282.641.641 0 0 0 0 1.282ZM232.821 188.906a.641.641 0 1 0 0-1.282.641.641 0 0 0 0 1.282ZM232.821 186.435a.641.641 0 1 0 0-1.282.641.641 0 0 0 0 1.282ZM232.821 183.964a.641.641 0 1 0 0-1.282.641.641 0 0 0 0 1.282ZM234.991 203.728a.641.641 0 1 0 .002-1.282.641.641 0 0 0-.002 1.282ZM234.991 201.257a.641.641 0 1 0 .001-1.283.641.641 0 0 0-.001 1.283ZM234.991 198.786a.641.641 0 1 0 .001-1.283.641.641 0 0 0-.001 1.283ZM234.991 196.315a.642.642 0 1 0 0-1.284.642.642 0 0 0 0 1.284ZM234.991 193.844a.642.642 0 1 0 0-1.284.642.642 0 0 0 0 1.284ZM234.991 191.377a.641.641 0 1 0 .002-1.282.641.641 0 0 0-.002 1.282ZM234.991 188.906a.641.641 0 1 0 .002-1.282.641.641 0 0 0-.002 1.282ZM234.991 186.435a.641.641 0 1 0 .001-1.283.641.641 0 0 0-.001 1.283ZM234.991 183.964a.641.641 0 1 0 .001-1.283.641.641 0 0 0-.001 1.283ZM237.162 203.728a.641.641 0 1 0 0-1.282.641.641 0 0 0 0 1.282ZM237.162 201.257a.641.641 0 1 0 0-1.282.641.641 0 0 0 0 1.282ZM237.162 198.786a.641.641 0 1 0 0-1.282.641.641 0 0 0 0 1.282ZM237.162 196.315a.642.642 0 1 0-.002-1.284.642.642 0 0 0 .002 1.284ZM237.162 193.844a.642.642 0 1 0-.002-1.284.642.642 0 0 0 .002 1.284ZM237.162 191.377a.641.641 0 1 0 0-1.282.641.641 0 0 0 0 1.282ZM237.162 188.906a.641.641 0 1 0 0-1.282.641.641 0 0 0 0 1.282ZM237.162 186.435a.641.641 0 1 0 0-1.282.641.641 0 0 0 0 1.282ZM237.162 183.964a.641.641 0 1 0 0-1.282.641.641 0 0 0 0 1.282ZM239.332 203.728a.642.642 0 1 0 0-1.284.642.642 0 0 0 0 1.284ZM239.332 201.257a.642.642 0 1 0 0-1.284.642.642 0 0 0 0 1.284ZM239.332 198.786a.642.642 0 1 0 0-1.284.642.642 0 0 0 0 1.284ZM239.332 196.315a.643.643 0 1 0-.001-1.285.643.643 0 0 0 .001 1.285ZM239.332 193.844a.643.643 0 1 0-.001-1.285.643.643 0 0 0 .001 1.285ZM239.332 191.377a.642.642 0 1 0 0-1.284.642.642 0 0 0 0 1.284ZM239.332 188.906a.642.642 0 1 0 0-1.284.642.642 0 0 0 0 1.284ZM239.332 186.435a.642.642 0 1 0 0-1.284.642.642 0 0 0 0 1.284ZM239.332 183.964a.642.642 0 1 0 0-1.284.642.642 0 0 0 0 1.284ZM241.502 203.728a.641.641 0 1 0 .002-1.282.641.641 0 0 0-.002 1.282ZM241.502 201.257a.641.641 0 1 0 .001-1.283.641.641 0 0 0-.001 1.283ZM241.502 198.786a.641.641 0 1 0 .001-1.283.641.641 0 0 0-.001 1.283ZM241.502 196.315a.642.642 0 1 0 0-1.284.642.642 0 0 0 0 1.284ZM241.502 193.844a.642.642 0 1 0 0-1.284.642.642 0 0 0 0 1.284ZM241.502 191.377a.641.641 0 1 0 .002-1.282.641.641 0 0 0-.002 1.282ZM241.502 188.906a.641.641 0 1 0 .002-1.282.641.641 0 0 0-.002 1.282ZM241.502 186.435a.641.641 0 1 0 .001-1.283.641.641 0 0 0-.001 1.283ZM241.502 183.964a.641.641 0 1 0 .001-1.283.641.641 0 0 0-.001 1.283ZM243.673 203.728a.641.641 0 1 0 0-1.282.641.641 0 0 0 0 1.282ZM243.673 201.257a.641.641 0 1 0 0-1.282.641.641 0 0 0 0 1.282ZM243.673 198.786a.641.641 0 1 0 0-1.282.641.641 0 0 0 0 1.282ZM243.673 196.315a.642.642 0 1 0-.002-1.284.642.642 0 0 0 .002 1.284ZM243.673 193.844a.642.642 0 1 0-.002-1.284.642.642 0 0 0 .002 1.284ZM243.673 191.377a.641.641 0 1 0 0-1.282.641.641 0 0 0 0 1.282ZM243.673 188.906a.641.641 0 1 0 0-1.282.641.641 0 0 0 0 1.282ZM243.673 186.435a.641.641 0 1 0 0-1.282.641.641 0 0 0 0 1.282ZM243.673 183.964a.641.641 0 1 0 0-1.282.641.641 0 0 0 0 1.282ZM245.848 203.728a.641.641 0 1 0 .002-1.282.641.641 0 0 0-.002 1.282ZM245.848 201.257a.641.641 0 1 0 .001-1.283.641.641 0 0 0-.001 1.283ZM245.848 198.786a.641.641 0 1 0 .001-1.283.641.641 0 0 0-.001 1.283ZM245.848 196.315a.642.642 0 1 0 0-1.284.642.642 0 0 0 0 1.284ZM245.848 193.844a.642.642 0 1 0 0-1.284.642.642 0 0 0 0 1.284ZM245.848 191.377a.641.641 0 1 0 .002-1.282.641.641 0 0 0-.002 1.282ZM245.848 188.906a.641.641 0 1 0 .002-1.282.641.641 0 0 0-.002 1.282ZM245.848 186.435a.641.641 0 1 0 .001-1.283.641.641 0 0 0-.001 1.283ZM245.848 183.964a.641.641 0 1 0 .001-1.283.641.641 0 0 0-.001 1.283Z" fill="#B5B5B6" style="mix-blend-mode:multiply" opacity=".59"/></g><g style="mix-blend-mode:multiply" opacity=".59"><path d="M248.535 203.728a.642.642 0 1 0 0-1.284.642.642 0 0 0 0 1.284ZM248.535 201.257a.642.642 0 1 0 0-1.284.642.642 0 0 0 0 1.284ZM248.535 198.786a.642.642 0 1 0 0-1.284.642.642 0 0 0 0 1.284ZM248.535 196.315a.643.643 0 1 0-.001-1.285.643.643 0 0 0 .001 1.285ZM248.535 193.844a.643.643 0 1 0-.001-1.285.643.643 0 0 0 .001 1.285ZM248.535 191.377a.642.642 0 1 0 0-1.284.642.642 0 0 0 0 1.284ZM248.535 188.906a.642.642 0 1 0 0-1.284.642.642 0 0 0 0 1.284ZM248.535 186.435a.642.642 0 1 0 0-1.284.642.642 0 0 0 0 1.284ZM248.535 183.964a.642.642 0 1 0 0-1.284.642.642 0 0 0 0 1.284ZM250.705 203.728a.641.641 0 1 0 .002-1.282.641.641 0 0 0-.002 1.282ZM250.705 201.257a.641.641 0 1 0 .001-1.283.641.641 0 0 0-.001 1.283ZM250.705 198.786a.641.641 0 1 0 .001-1.283.641.641 0 0 0-.001 1.283ZM250.705 196.315a.642.642 0 1 0 0-1.284.642.642 0 0 0 0 1.284ZM250.705 193.844a.642.642 0 1 0 0-1.284.642.642 0 0 0 0 1.284ZM250.705 191.377a.641.641 0 1 0 .002-1.282.641.641 0 0 0-.002 1.282ZM250.705 188.906a.641.641 0 1 0 .002-1.282.641.641 0 0 0-.002 1.282ZM250.705 186.435a.641.641 0 1 0 .001-1.283.641.641 0 0 0-.001 1.283ZM250.705 183.964a.641.641 0 1 0 .001-1.283.641.641 0 0 0-.001 1.283ZM252.876 203.728a.641.641 0 1 0 0-1.282.641.641 0 0 0 0 1.282ZM252.876 201.257a.641.641 0 1 0 0-1.282.641.641 0 0 0 0 1.282ZM252.876 198.786a.641.641 0 1 0 0-1.282.641.641 0 0 0 0 1.282ZM252.876 196.315a.642.642 0 1 0-.002-1.284.642.642 0 0 0 .002 1.284ZM252.876 193.844a.642.642 0 1 0-.002-1.284.642.642 0 0 0 .002 1.284ZM252.876 191.377a.641.641 0 1 0 0-1.282.641.641 0 0 0 0 1.282ZM252.876 188.906a.641.641 0 1 0 0-1.282.641.641 0 0 0 0 1.282ZM252.876 186.435a.641.641 0 1 0 0-1.282.641.641 0 0 0 0 1.282ZM252.876 183.964a.641.641 0 1 0 0-1.282.641.641 0 0 0 0 1.282ZM255.051 203.728a.641.641 0 1 0 .002-1.282.641.641 0 0 0-.002 1.282ZM255.051 201.257a.641.641 0 1 0 .001-1.283.641.641 0 0 0-.001 1.283ZM255.051 198.786a.641.641 0 1 0 .001-1.283.641.641 0 0 0-.001 1.283ZM255.051 196.315a.642.642 0 1 0 0-1.284.642.642 0 0 0 0 1.284ZM255.051 193.844a.642.642 0 1 0 0-1.284.642.642 0 0 0 0 1.284ZM255.051 191.377a.641.641 0 1 0 .002-1.282.641.641 0 0 0-.002 1.282ZM255.051 188.906a.641.641 0 1 0 .002-1.282.641.641 0 0 0-.002 1.282ZM255.051 186.435a.641.641 0 1 0 .001-1.283.641.641 0 0 0-.001 1.283ZM255.051 183.964a.641.641 0 1 0 .001-1.283.641.641 0 0 0-.001 1.283ZM257.222 203.728a.641.641 0 1 0 0-1.282.641.641 0 0 0 0 1.282ZM257.222 201.257a.641.641 0 1 0 0-1.282.641.641 0 0 0 0 1.282ZM257.222 198.786a.641.641 0 1 0 0-1.282.641.641 0 0 0 0 1.282ZM257.222 196.315a.642.642 0 1 0-.002-1.284.642.642 0 0 0 .002 1.284ZM257.222 193.844a.642.642 0 1 0-.002-1.284.642.642 0 0 0 .002 1.284ZM257.222 191.377a.641.641 0 1 0 0-1.282.641.641 0 0 0 0 1.282ZM257.222 188.906a.641.641 0 1 0 0-1.282.641.641 0 0 0 0 1.282ZM257.222 186.435a.641.641 0 1 0 0-1.282.641.641 0 0 0 0 1.282ZM257.222 183.964a.641.641 0 1 0 0-1.282.641.641 0 0 0 0 1.282ZM259.392 203.728a.642.642 0 1 0 0-1.284.642.642 0 0 0 0 1.284ZM259.392 201.257a.642.642 0 1 0 0-1.284.642.642 0 0 0 0 1.284ZM259.392 198.786a.642.642 0 1 0 0-1.284.642.642 0 0 0 0 1.284ZM259.392 196.315a.643.643 0 1 0-.001-1.285.643.643 0 0 0 .001 1.285ZM259.392 193.844a.643.643 0 1 0-.001-1.285.643.643 0 0 0 .001 1.285ZM259.392 191.377a.642.642 0 1 0 0-1.284.642.642 0 0 0 0 1.284ZM259.392 188.906a.642.642 0 1 0 0-1.284.642.642 0 0 0 0 1.284ZM259.392 186.435a.642.642 0 1 0 0-1.284.642.642 0 0 0 0 1.284ZM259.392 183.964a.642.642 0 1 0 0-1.284.642.642 0 0 0 0 1.284ZM261.563 203.728a.641.641 0 1 0 0-1.282.641.641 0 0 0 0 1.282ZM261.563 201.257a.641.641 0 1 0 0-1.282.641.641 0 0 0 0 1.282ZM261.563 198.786a.641.641 0 1 0 0-1.282.641.641 0 0 0 0 1.282ZM261.563 196.315a.642.642 0 1 0-.002-1.284.642.642 0 0 0 .002 1.284ZM261.563 193.844a.642.642 0 1 0-.002-1.284.642.642 0 0 0 .002 1.284ZM261.563 191.377a.641.641 0 1 0 0-1.282.641.641 0 0 0 0 1.282ZM261.563 188.906a.641.641 0 1 0 0-1.282.641.641 0 0 0 0 1.282ZM261.563 186.435a.641.641 0 1 0 0-1.282.641.641 0 0 0 0 1.282ZM261.563 183.964a.641.641 0 1 0 0-1.282.641.641 0 0 0 0 1.282ZM263.733 203.728a.642.642 0 1 0 0-1.284.642.642 0 0 0 0 1.284ZM263.733 201.257a.642.642 0 1 0 0-1.284.642.642 0 0 0 0 1.284ZM263.733 198.786a.642.642 0 1 0 0-1.284.642.642 0 0 0 0 1.284ZM263.733 196.315a.643.643 0 1 0-.001-1.285.643.643 0 0 0 .001 1.285ZM263.733 193.844a.643.643 0 1 0-.001-1.285.643.643 0 0 0 .001 1.285ZM263.733 191.377a.642.642 0 1 0 0-1.284.642.642 0 0 0 0 1.284ZM263.733 188.906a.642.642 0 1 0 0-1.284.642.642 0 0 0 0 1.284ZM263.733 186.435a.642.642 0 1 0 0-1.284.642.642 0 0 0 0 1.284ZM263.733 183.964a.642.642 0 1 0 0-1.284.642.642 0 0 0 0 1.284ZM266.064 203.728a.641.641 0 1 0 0-1.282.641.641 0 0 0 0 1.282ZM266.064 201.257a.641.641 0 1 0 0-1.282.641.641 0 0 0 0 1.282ZM266.064 198.786a.641.641 0 1 0 0-1.282.641.641 0 0 0 0 1.282ZM266.064 196.315a.642.642 0 1 0-.002-1.284.642.642 0 0 0 .002 1.284ZM266.064 193.844a.642.642 0 1 0-.002-1.284.642.642 0 0 0 .002 1.284ZM266.064 191.377a.641.641 0 1 0 0-1.282.641.641 0 0 0 0 1.282ZM266.064 188.906a.641.641 0 1 0 0-1.282.641.641 0 0 0 0 1.282ZM266.064 186.435a.641.641 0 1 0 0-1.282.641.641 0 0 0 0 1.282ZM266.064 183.964a.641.641 0 1 0 0-1.282.641.641 0 0 0 0 1.282Z" fill="#B5B5B6" style="mix-blend-mode:multiply" opacity=".59"/></g></g><path d="M312.098 103.363H168.435a6.326 6.326 0 0 0-6.326 6.326v78.716a6.327 6.327 0 0 0 6.326 6.326h143.663a6.326 6.326 0 0 0 6.326-6.326v-78.716a6.326 6.326 0 0 0-6.326-6.326Z" fill="#E1E5EA" stroke="#231815" stroke-width=".526" stroke-miterlimit="10"/><g style="mix-blend-mode:multiply"><g style="mix-blend-mode:multiply" opacity=".59"><path d="M271.166 165.839a.642.642 0 1 0 0-1.284.642.642 0 0 0 0 1.284ZM271.166 168.31a.641.641 0 1 0 .001-1.283.641.641 0 0 0-.001 1.283ZM271.166 170.781a.641.641 0 1 0 .001-1.283.641.641 0 0 0-.001 1.283ZM271.166 173.252a.641.641 0 1 0 .002-1.282.641.641 0 0 0-.002 1.282ZM271.166 175.723a.641.641 0 1 0 .002-1.282.641.641 0 0 0-.002 1.282ZM271.166 178.194a.641.641 0 1 0 .002-1.282.641.641 0 0 0-.002 1.282ZM271.166 180.666a.642.642 0 1 0 0-1.284.642.642 0 0 0 0 1.284ZM271.166 183.132a.641.641 0 1 0 .001-1.283.641.641 0 0 0-.001 1.283ZM271.166 185.603a.641.641 0 1 0 .001-1.283.641.641 0 0 0-.001 1.283ZM268.996 165.839a.642.642 0 1 0-.002-1.284.642.642 0 0 0 .002 1.284ZM268.996 168.31a.641.641 0 1 0 0-1.282.641.641 0 0 0 0 1.282ZM268.996 170.781a.641.641 0 1 0 0-1.282.641.641 0 0 0 0 1.282ZM268.996 173.252a.641.641 0 1 0 0-1.282.641.641 0 0 0 0 1.282ZM268.996 175.723a.641.641 0 1 0 0-1.282.641.641 0 0 0 0 1.282ZM268.996 178.194a.641.641 0 1 0 0-1.282.641.641 0 0 0 0 1.282ZM268.996 180.666a.642.642 0 1 0-.002-1.284.642.642 0 0 0 .002 1.284ZM268.996 183.132a.641.641 0 1 0 0-1.282.641.641 0 0 0 0 1.282ZM268.996 185.603a.641.641 0 1 0 0-1.282.641.641 0 0 0 0 1.282ZM266.825 165.839a.642.642 0 1 0 0-1.284.642.642 0 0 0 0 1.284ZM266.825 168.31a.641.641 0 1 0 .001-1.283.641.641 0 0 0-.001 1.283ZM266.825 170.781a.641.641 0 1 0 .001-1.283.641.641 0 0 0-.001 1.283ZM266.825 173.252a.641.641 0 1 0 .002-1.282.641.641 0 0 0-.002 1.282ZM266.825 175.723a.641.641 0 1 0 .002-1.282.641.641 0 0 0-.002 1.282ZM266.825 178.194a.641.641 0 1 0 .002-1.282.641.641 0 0 0-.002 1.282ZM266.825 180.666a.642.642 0 1 0 0-1.284.642.642 0 0 0 0 1.284ZM266.825 183.132a.641.641 0 1 0 .001-1.283.641.641 0 0 0-.001 1.283ZM266.825 185.603a.641.641 0 1 0 .001-1.283.641.641 0 0 0-.001 1.283ZM264.655 165.839a.643.643 0 1 0-.001-1.285.643.643 0 0 0 .001 1.285ZM264.655 168.31a.642.642 0 1 0 0-1.284.642.642 0 0 0 0 1.284ZM264.655 170.781a.642.642 0 1 0 0-1.284.642.642 0 0 0 0 1.284ZM264.655 173.252a.642.642 0 1 0 0-1.284.642.642 0 0 0 0 1.284ZM264.655 175.723a.642.642 0 1 0 0-1.284.642.642 0 0 0 0 1.284ZM264.655 178.194a.642.642 0 1 0 0-1.284.642.642 0 0 0 0 1.284ZM264.655 180.666a.643.643 0 1 0-.001-1.285.643.643 0 0 0 .001 1.285ZM264.655 183.132a.642.642 0 1 0 0-1.284.642.642 0 0 0 0 1.284ZM264.655 185.603a.642.642 0 1 0 0-1.284.642.642 0 0 0 0 1.284ZM262.485 165.839a.642.642 0 1 0-.002-1.284.642.642 0 0 0 .002 1.284ZM262.485 168.31a.641.641 0 1 0 0-1.282.641.641 0 0 0 0 1.282ZM262.485 170.781a.641.641 0 1 0 0-1.282.641.641 0 0 0 0 1.282ZM262.485 173.252a.641.641 0 1 0 0-1.282.641.641 0 0 0 0 1.282ZM262.485 175.723a.641.641 0 1 0 0-1.282.641.641 0 0 0 0 1.282ZM262.485 178.194a.641.641 0 1 0 0-1.282.641.641 0 0 0 0 1.282ZM262.485 180.666a.642.642 0 1 0-.002-1.284.642.642 0 0 0 .002 1.284ZM262.485 183.132a.641.641 0 1 0 0-1.282.641.641 0 0 0 0 1.282ZM262.485 185.603a.641.641 0 1 0 0-1.282.641.641 0 0 0 0 1.282ZM260.314 165.839a.642.642 0 1 0 0-1.284.642.642 0 0 0 0 1.284ZM260.314 168.31a.641.641 0 1 0 .001-1.283.641.641 0 0 0-.001 1.283ZM260.314 170.781a.641.641 0 1 0 .001-1.283.641.641 0 0 0-.001 1.283ZM260.314 173.252a.641.641 0 1 0 .002-1.282.641.641 0 0 0-.002 1.282ZM260.314 175.723a.641.641 0 1 0 .002-1.282.641.641 0 0 0-.002 1.282ZM260.314 178.194a.641.641 0 1 0 .002-1.282.641.641 0 0 0-.002 1.282ZM260.314 180.666a.642.642 0 1 0 0-1.284.642.642 0 0 0 0 1.284ZM260.314 183.132a.641.641 0 1 0 .001-1.283.641.641 0 0 0-.001 1.283ZM260.314 185.603a.641.641 0 1 0 .001-1.283.641.641 0 0 0-.001 1.283ZM258.144 165.839a.642.642 0 1 0-.002-1.284.642.642 0 0 0 .002 1.284ZM258.144 168.31a.641.641 0 1 0 0-1.282.641.641 0 0 0 0 1.282ZM258.144 170.781a.641.641 0 1 0 0-1.282.641.641 0 0 0 0 1.282ZM258.144 173.252a.641.641 0 1 0 0-1.282.641.641 0 0 0 0 1.282ZM258.144 175.723a.641.641 0 1 0 0-1.282.641.641 0 0 0 0 1.282ZM258.144 178.194a.641.641 0 1 0 0-1.282.641.641 0 0 0 0 1.282ZM258.144 180.666a.642.642 0 1 0-.002-1.284.642.642 0 0 0 .002 1.284ZM258.144 183.132a.641.641 0 1 0 0-1.282.641.641 0 0 0 0 1.282ZM258.144 185.603a.641.641 0 1 0 0-1.282.641.641 0 0 0 0 1.282ZM255.973 165.839a.642.642 0 1 0 0-1.284.642.642 0 0 0 0 1.284ZM255.973 168.31a.641.641 0 1 0 .001-1.283.641.641 0 0 0-.001 1.283ZM255.973 170.781a.641.641 0 1 0 .001-1.283.641.641 0 0 0-.001 1.283ZM255.973 173.252a.641.641 0 1 0 .002-1.282.641.641 0 0 0-.002 1.282ZM255.973 175.723a.641.641 0 1 0 .002-1.282.641.641 0 0 0-.002 1.282ZM255.973 178.194a.641.641 0 1 0 .002-1.282.641.641 0 0 0-.002 1.282ZM255.973 180.666a.642.642 0 1 0 0-1.284.642.642 0 0 0 0 1.284ZM255.973 183.132a.641.641 0 1 0 .001-1.283.641.641 0 0 0-.001 1.283ZM255.973 185.603a.641.641 0 1 0 .001-1.283.641.641 0 0 0-.001 1.283Z" fill="#B5B5B6" style="mix-blend-mode:multiply" opacity=".59"/></g><g style="mix-blend-mode:multiply" opacity=".59"><path d="M253.282 165.839a.642.642 0 1 0-.002-1.284.642.642 0 0 0 .002 1.284ZM253.282 168.31a.641.641 0 1 0 0-1.282.641.641 0 0 0 0 1.282ZM253.282 170.781a.641.641 0 1 0 0-1.282.641.641 0 0 0 0 1.282ZM253.282 173.252a.641.641 0 1 0 0-1.282.641.641 0 0 0 0 1.282ZM253.282 175.723a.641.641 0 1 0 0-1.282.641.641 0 0 0 0 1.282ZM253.282 178.194a.641.641 0 1 0 0-1.282.641.641 0 0 0 0 1.282ZM253.282 180.666a.642.642 0 1 0-.002-1.284.642.642 0 0 0 .002 1.284ZM253.282 183.132a.641.641 0 1 0 0-1.282.641.641 0 0 0 0 1.282ZM253.282 185.603a.641.641 0 1 0 0-1.282.641.641 0 0 0 0 1.282ZM251.111 165.839a.642.642 0 1 0 0-1.284.642.642 0 0 0 0 1.284ZM251.111 168.31a.641.641 0 1 0 .001-1.283.641.641 0 0 0-.001 1.283ZM251.111 170.781a.641.641 0 1 0 .001-1.283.641.641 0 0 0-.001 1.283ZM251.111 173.252a.641.641 0 1 0 .002-1.282.641.641 0 0 0-.002 1.282ZM251.111 175.723a.641.641 0 1 0 .002-1.282.641.641 0 0 0-.002 1.282ZM251.111 178.194a.641.641 0 1 0 .002-1.282.641.641 0 0 0-.002 1.282ZM251.111 180.666a.642.642 0 1 0 0-1.284.642.642 0 0 0 0 1.284ZM251.111 183.132a.641.641 0 1 0 .001-1.283.641.641 0 0 0-.001 1.283ZM251.111 185.603a.641.641 0 1 0 .001-1.283.641.641 0 0 0-.001 1.283ZM248.941 165.839a.642.642 0 1 0-.002-1.284.642.642 0 0 0 .002 1.284ZM248.941 168.31a.641.641 0 1 0 0-1.282.641.641 0 0 0 0 1.282ZM248.941 170.781a.641.641 0 1 0 0-1.282.641.641 0 0 0 0 1.282ZM248.941 173.252a.641.641 0 1 0 0-1.282.641.641 0 0 0 0 1.282ZM248.941 175.723a.641.641 0 1 0 0-1.282.641.641 0 0 0 0 1.282ZM248.941 178.194a.641.641 0 1 0 0-1.282.641.641 0 0 0 0 1.282ZM248.941 180.666a.642.642 0 1 0-.002-1.284.642.642 0 0 0 .002 1.284ZM248.941 183.132a.641.641 0 1 0 0-1.282.641.641 0 0 0 0 1.282ZM248.941 185.603a.641.641 0 1 0 0-1.282.641.641 0 0 0 0 1.282ZM246.771 165.839a.642.642 0 1 0-.002-1.284.642.642 0 0 0 .002 1.284ZM246.771 168.31a.641.641 0 1 0 0-1.282.641.641 0 0 0 0 1.282ZM246.771 170.781a.641.641 0 1 0 0-1.282.641.641 0 0 0 0 1.282ZM246.771 173.252a.641.641 0 1 0 0-1.282.641.641 0 0 0 0 1.282ZM246.771 175.723a.641.641 0 1 0 0-1.282.641.641 0 0 0 0 1.282ZM246.771 178.194a.641.641 0 1 0 0-1.282.641.641 0 0 0 0 1.282ZM246.771 180.666a.642.642 0 1 0-.002-1.284.642.642 0 0 0 .002 1.284ZM246.771 183.132a.641.641 0 1 0 0-1.282.641.641 0 0 0 0 1.282ZM246.771 185.603a.641.641 0 1 0 0-1.282.641.641 0 0 0 0 1.282ZM244.6 165.839a.643.643 0 1 0-.001-1.285.643.643 0 0 0 .001 1.285ZM244.6 168.31a.642.642 0 1 0 0-1.284.642.642 0 0 0 0 1.284ZM244.6 170.781a.642.642 0 1 0 0-1.284.642.642 0 0 0 0 1.284ZM244.6 173.252a.642.642 0 1 0 0-1.284.642.642 0 0 0 0 1.284ZM244.6 175.723a.642.642 0 1 0 0-1.284.642.642 0 0 0 0 1.284ZM244.6 178.194a.642.642 0 1 0 0-1.284.642.642 0 0 0 0 1.284ZM244.6 180.666a.643.643 0 1 0-.001-1.285.643.643 0 0 0 .001 1.285ZM244.6 183.132a.642.642 0 1 0 0-1.284.642.642 0 0 0 0 1.284ZM244.6 185.603a.642.642 0 1 0 0-1.284.642.642 0 0 0 0 1.284ZM242.429 165.839a.642.642 0 1 0 0-1.284.642.642 0 0 0 0 1.284ZM242.429 168.31a.641.641 0 1 0 .001-1.283.641.641 0 0 0-.001 1.283ZM242.429 170.781a.641.641 0 1 0 .001-1.283.641.641 0 0 0-.001 1.283ZM242.429 173.252a.641.641 0 1 0 .002-1.282.641.641 0 0 0-.002 1.282ZM242.429 175.723a.641.641 0 1 0 .002-1.282.641.641 0 0 0-.002 1.282ZM242.429 178.194a.641.641 0 1 0 .002-1.282.641.641 0 0 0-.002 1.282ZM242.429 180.666a.642.642 0 1 0 0-1.284.642.642 0 0 0 0 1.284ZM242.429 183.132a.641.641 0 1 0 .001-1.283.641.641 0 0 0-.001 1.283ZM242.429 185.603a.641.641 0 1 0 .001-1.283.641.641 0 0 0-.001 1.283ZM240.254 165.839a.643.643 0 1 0-.001-1.285.643.643 0 0 0 .001 1.285ZM240.254 168.31a.642.642 0 1 0 0-1.284.642.642 0 0 0 0 1.284ZM240.254 170.781a.642.642 0 1 0 0-1.284.642.642 0 0 0 0 1.284ZM240.254 173.252a.642.642 0 1 0 0-1.284.642.642 0 0 0 0 1.284ZM240.254 175.723a.642.642 0 1 0 0-1.284.642.642 0 0 0 0 1.284ZM240.254 178.194a.642.642 0 1 0 0-1.284.642.642 0 0 0 0 1.284ZM240.254 180.666a.643.643 0 1 0-.001-1.285.643.643 0 0 0 .001 1.285ZM240.254 183.132a.642.642 0 1 0 0-1.284.642.642 0 0 0 0 1.284ZM240.254 185.603a.642.642 0 1 0 0-1.284.642.642 0 0 0 0 1.284ZM238.084 165.839a.642.642 0 1 0-.002-1.284.642.642 0 0 0 .002 1.284ZM238.084 168.31a.641.641 0 1 0 0-1.282.641.641 0 0 0 0 1.282ZM238.084 170.781a.641.641 0 1 0 0-1.282.641.641 0 0 0 0 1.282ZM238.084 173.252a.641.641 0 1 0 0-1.282.641.641 0 0 0 0 1.282ZM238.084 175.723a.641.641 0 1 0 0-1.282.641.641 0 0 0 0 1.282ZM238.084 178.194a.641.641 0 1 0 0-1.282.641.641 0 0 0 0 1.282ZM238.084 180.666a.642.642 0 1 0-.002-1.284.642.642 0 0 0 .002 1.284ZM238.084 183.132a.641.641 0 1 0 0-1.282.641.641 0 0 0 0 1.282ZM238.084 185.603a.641.641 0 1 0 0-1.282.641.641 0 0 0 0 1.282Z" fill="#B5B5B6" style="mix-blend-mode:multiply" opacity=".59"/></g><g style="mix-blend-mode:multiply" opacity=".59"><path d="M235.768 165.839a.643.643 0 1 0-.001-1.285.643.643 0 0 0 .001 1.285ZM235.768 168.31a.642.642 0 1 0 0-1.284.642.642 0 0 0 0 1.284ZM235.768 170.781a.642.642 0 1 0 0-1.284.642.642 0 0 0 0 1.284ZM235.768 173.252a.642.642 0 1 0 0-1.284.642.642 0 0 0 0 1.284ZM235.768 175.723a.642.642 0 1 0 0-1.284.642.642 0 0 0 0 1.284ZM235.768 178.194a.642.642 0 1 0 0-1.284.642.642 0 0 0 0 1.284ZM235.768 180.666a.643.643 0 1 0-.001-1.285.643.643 0 0 0 .001 1.285ZM235.768 183.132a.642.642 0 1 0 0-1.284.642.642 0 0 0 0 1.284ZM235.768 185.603a.642.642 0 1 0 0-1.284.642.642 0 0 0 0 1.284ZM233.598 165.839a.642.642 0 1 0-.002-1.284.642.642 0 0 0 .002 1.284ZM233.598 168.31a.641.641 0 1 0 0-1.282.641.641 0 0 0 0 1.282ZM233.598 170.781a.641.641 0 1 0 0-1.282.641.641 0 0 0 0 1.282ZM233.598 173.252a.641.641 0 1 0 0-1.282.641.641 0 0 0 0 1.282ZM233.598 175.723a.641.641 0 1 0 0-1.282.641.641 0 0 0 0 1.282ZM233.598 178.194a.641.641 0 1 0 0-1.282.641.641 0 0 0 0 1.282ZM233.598 180.666a.642.642 0 1 0-.002-1.284.642.642 0 0 0 .002 1.284ZM233.598 183.132a.641.641 0 1 0 0-1.282.641.641 0 0 0 0 1.282ZM233.598 185.603a.641.641 0 1 0 0-1.282.641.641 0 0 0 0 1.282ZM231.427 165.839a.642.642 0 1 0 0-1.284.642.642 0 0 0 0 1.284ZM231.427 168.31a.641.641 0 1 0 .001-1.283.641.641 0 0 0-.001 1.283ZM231.427 170.781a.641.641 0 1 0 .001-1.283.641.641 0 0 0-.001 1.283ZM231.427 173.252a.641.641 0 1 0 .002-1.282.641.641 0 0 0-.002 1.282ZM231.427 175.723a.641.641 0 1 0 .002-1.282.641.641 0 0 0-.002 1.282ZM231.427 178.194a.641.641 0 1 0 .002-1.282.641.641 0 0 0-.002 1.282ZM231.427 180.666a.642.642 0 1 0 0-1.284.642.642 0 0 0 0 1.284ZM231.427 183.132a.641.641 0 1 0 .001-1.283.641.641 0 0 0-.001 1.283ZM231.427 185.603a.641.641 0 1 0 .001-1.283.641.641 0 0 0-.001 1.283ZM229.257 165.839a.642.642 0 1 0-.002-1.284.642.642 0 0 0 .002 1.284ZM229.257 168.31a.641.641 0 1 0 0-1.282.641.641 0 0 0 0 1.282ZM229.257 170.781a.641.641 0 1 0 0-1.282.641.641 0 0 0 0 1.282ZM229.257 173.252a.641.641 0 1 0 0-1.282.641.641 0 0 0 0 1.282ZM229.257 175.723a.641.641 0 1 0 0-1.282.641.641 0 0 0 0 1.282ZM229.257 178.194a.641.641 0 1 0 0-1.282.641.641 0 0 0 0 1.282ZM229.257 180.666a.642.642 0 1 0-.002-1.284.642.642 0 0 0 .002 1.284ZM229.257 183.132a.641.641 0 1 0 0-1.282.641.641 0 0 0 0 1.282ZM229.257 185.603a.641.641 0 1 0 0-1.282.641.641 0 0 0 0 1.282ZM227.081 165.839a.642.642 0 1 0 0-1.284.642.642 0 0 0 0 1.284ZM227.081 168.31a.641.641 0 1 0 .001-1.283.641.641 0 0 0-.001 1.283ZM227.081 170.781a.641.641 0 1 0 .001-1.283.641.641 0 0 0-.001 1.283ZM227.081 173.252a.641.641 0 1 0 .002-1.282.641.641 0 0 0-.002 1.282ZM227.081 175.723a.641.641 0 1 0 .002-1.282.641.641 0 0 0-.002 1.282ZM227.081 178.194a.641.641 0 1 0 .002-1.282.641.641 0 0 0-.002 1.282ZM227.081 180.666a.642.642 0 1 0 0-1.284.642.642 0 0 0 0 1.284ZM227.081 183.132a.641.641 0 1 0 .001-1.283.641.641 0 0 0-.001 1.283ZM227.081 185.603a.641.641 0 1 0 .001-1.283.641.641 0 0 0-.001 1.283ZM224.911 165.839a.642.642 0 1 0-.002-1.284.642.642 0 0 0 .002 1.284ZM224.911 168.31a.641.641 0 1 0 0-1.282.641.641 0 0 0 0 1.282ZM224.911 170.781a.641.641 0 1 0 0-1.282.641.641 0 0 0 0 1.282ZM224.911 173.252a.641.641 0 1 0 0-1.282.641.641 0 0 0 0 1.282ZM224.911 175.723a.641.641 0 1 0 0-1.282.641.641 0 0 0 0 1.282ZM224.911 178.194a.641.641 0 1 0 0-1.282.641.641 0 0 0 0 1.282ZM224.911 180.666a.642.642 0 1 0-.002-1.284.642.642 0 0 0 .002 1.284ZM224.911 183.132a.641.641 0 1 0 0-1.282.641.641 0 0 0 0 1.282ZM224.911 185.603a.641.641 0 1 0 0-1.282.641.641 0 0 0 0 1.282ZM222.74 165.839a.642.642 0 1 0 0-1.284.642.642 0 0 0 0 1.284ZM222.74 168.31a.641.641 0 1 0 .001-1.283.641.641 0 0 0-.001 1.283ZM222.74 170.781a.641.641 0 1 0 .001-1.283.641.641 0 0 0-.001 1.283ZM222.74 173.252a.641.641 0 1 0 .002-1.282.641.641 0 0 0-.002 1.282ZM222.74 175.723a.641.641 0 1 0 .002-1.282.641.641 0 0 0-.002 1.282ZM222.74 178.194a.641.641 0 1 0 .002-1.282.641.641 0 0 0-.002 1.282ZM222.74 180.666a.642.642 0 1 0 0-1.284.642.642 0 0 0 0 1.284ZM222.74 183.132a.641.641 0 1 0 .001-1.283.641.641 0 0 0-.001 1.283ZM222.74 185.603a.641.641 0 1 0 .001-1.283.641.641 0 0 0-.001 1.283ZM220.57 165.839a.643.643 0 1 0-.001-1.285.643.643 0 0 0 .001 1.285ZM220.57 168.31a.642.642 0 1 0 0-1.284.642.642 0 0 0 0 1.284ZM220.57 170.781a.642.642 0 1 0 0-1.284.642.642 0 0 0 0 1.284ZM220.57 173.252a.642.642 0 1 0 0-1.284.642.642 0 0 0 0 1.284ZM220.57 175.723a.642.642 0 1 0 0-1.284.642.642 0 0 0 0 1.284ZM220.57 178.194a.642.642 0 1 0 0-1.284.642.642 0 0 0 0 1.284ZM220.57 180.666a.643.643 0 1 0-.001-1.285.643.643 0 0 0 .001 1.285ZM220.57 183.132a.642.642 0 1 0 0-1.284.642.642 0 0 0 0 1.284ZM220.57 185.603a.642.642 0 1 0 0-1.284.642.642 0 0 0 0 1.284Z" fill="#B5B5B6" style="mix-blend-mode:multiply" opacity=".59"/></g><g style="mix-blend-mode:multiply" opacity=".59"><path d="M217.878 165.839a.642.642 0 1 0 0-1.284.642.642 0 0 0 0 1.284ZM217.878 168.31a.641.641 0 1 0 .001-1.283.641.641 0 0 0-.001 1.283ZM217.878 170.781a.641.641 0 1 0 .001-1.283.641.641 0 0 0-.001 1.283ZM217.878 173.252a.641.641 0 1 0 .002-1.282.641.641 0 0 0-.002 1.282ZM217.878 175.723a.641.641 0 1 0 .002-1.282.641.641 0 0 0-.002 1.282ZM217.878 178.194a.641.641 0 1 0 .002-1.282.641.641 0 0 0-.002 1.282ZM217.878 180.666a.642.642 0 1 0 0-1.284.642.642 0 0 0 0 1.284ZM217.878 183.132a.641.641 0 1 0 .001-1.283.641.641 0 0 0-.001 1.283ZM217.878 185.603a.641.641 0 1 0 .001-1.283.641.641 0 0 0-.001 1.283ZM215.708 165.839a.643.643 0 1 0-.001-1.285.643.643 0 0 0 .001 1.285ZM215.708 168.31a.642.642 0 1 0 0-1.284.642.642 0 0 0 0 1.284ZM215.708 170.781a.642.642 0 1 0 0-1.284.642.642 0 0 0 0 1.284ZM215.708 173.252a.642.642 0 1 0 0-1.284.642.642 0 0 0 0 1.284ZM215.708 175.723a.642.642 0 1 0 0-1.284.642.642 0 0 0 0 1.284ZM215.708 178.194a.642.642 0 1 0 0-1.284.642.642 0 0 0 0 1.284ZM215.708 180.666a.643.643 0 1 0-.001-1.285.643.643 0 0 0 .001 1.285ZM215.708 183.132a.642.642 0 1 0 0-1.284.642.642 0 0 0 0 1.284ZM215.708 185.603a.642.642 0 1 0 0-1.284.642.642 0 0 0 0 1.284ZM213.538 165.839a.642.642 0 1 0-.002-1.284.642.642 0 0 0 .002 1.284ZM213.538 168.31a.641.641 0 1 0 0-1.282.641.641 0 0 0 0 1.282ZM213.538 170.781a.641.641 0 1 0 0-1.282.641.641 0 0 0 0 1.282ZM213.538 173.252a.641.641 0 1 0 0-1.282.641.641 0 0 0 0 1.282ZM213.538 175.723a.641.641 0 1 0 0-1.282.641.641 0 0 0 0 1.282ZM213.538 178.194a.641.641 0 1 0 0-1.282.641.641 0 0 0 0 1.282ZM213.538 180.666a.642.642 0 1 0-.002-1.284.642.642 0 0 0 .002 1.284ZM213.538 183.132a.641.641 0 1 0 0-1.282.641.641 0 0 0 0 1.282ZM213.538 185.603a.641.641 0 1 0 0-1.282.641.641 0 0 0 0 1.282ZM211.367 165.839a.642.642 0 1 0 0-1.284.642.642 0 0 0 0 1.284ZM211.367 168.31a.641.641 0 1 0 .001-1.283.641.641 0 0 0-.001 1.283ZM211.367 170.781a.641.641 0 1 0 .001-1.283.641.641 0 0 0-.001 1.283ZM211.367 173.252a.641.641 0 1 0 .002-1.282.641.641 0 0 0-.002 1.282ZM211.367 175.723a.641.641 0 1 0 .002-1.282.641.641 0 0 0-.002 1.282ZM211.367 178.194a.641.641 0 1 0 .002-1.282.641.641 0 0 0-.002 1.282ZM211.367 180.666a.642.642 0 1 0 0-1.284.642.642 0 0 0 0 1.284ZM211.367 183.132a.641.641 0 1 0 .001-1.283.641.641 0 0 0-.001 1.283ZM211.367 185.603a.641.641 0 1 0 .001-1.283.641.641 0 0 0-.001 1.283ZM209.197 165.839a.642.642 0 1 0-.002-1.284.642.642 0 0 0 .002 1.284ZM209.197 168.31a.641.641 0 1 0 0-1.282.641.641 0 0 0 0 1.282ZM209.197 170.781a.641.641 0 1 0 0-1.282.641.641 0 0 0 0 1.282ZM209.197 173.252a.641.641 0 1 0 0-1.282.641.641 0 0 0 0 1.282ZM209.197 175.723a.641.641 0 1 0 0-1.282.641.641 0 0 0 0 1.282ZM209.197 178.194a.641.641 0 1 0 0-1.282.641.641 0 0 0 0 1.282ZM209.197 180.666a.642.642 0 1 0-.002-1.284.642.642 0 0 0 .002 1.284ZM209.197 183.132a.641.641 0 1 0 0-1.282.641.641 0 0 0 0 1.282ZM209.197 185.603a.641.641 0 1 0 0-1.282.641.641 0 0 0 0 1.282ZM207.026 165.839a.642.642 0 1 0 0-1.284.642.642 0 0 0 0 1.284ZM207.026 168.31a.641.641 0 1 0 .001-1.283.641.641 0 0 0-.001 1.283ZM207.026 170.781a.641.641 0 1 0 .001-1.283.641.641 0 0 0-.001 1.283ZM207.026 173.252a.641.641 0 1 0 .002-1.282.641.641 0 0 0-.002 1.282ZM207.026 175.723a.641.641 0 1 0 .002-1.282.641.641 0 0 0-.002 1.282ZM207.026 178.194a.641.641 0 1 0 .002-1.282.641.641 0 0 0-.002 1.282ZM207.026 180.666a.642.642 0 1 0 0-1.284.642.642 0 0 0 0 1.284ZM207.026 183.132a.641.641 0 1 0 .001-1.283.641.641 0 0 0-.001 1.283ZM207.026 185.603a.641.641 0 1 0 .001-1.283.641.641 0 0 0-.001 1.283ZM204.856 165.839a.643.643 0 1 0-.001-1.285.643.643 0 0 0 .001 1.285ZM204.856 168.31a.642.642 0 1 0 0-1.284.642.642 0 0 0 0 1.284ZM204.856 170.781a.642.642 0 1 0 0-1.284.642.642 0 0 0 0 1.284ZM204.856 173.252a.642.642 0 1 0 0-1.284.642.642 0 0 0 0 1.284ZM204.856 175.723a.642.642 0 1 0 0-1.284.642.642 0 0 0 0 1.284ZM204.856 178.194a.642.642 0 1 0 0-1.284.642.642 0 0 0 0 1.284ZM204.856 180.666a.643.643 0 1 0-.001-1.285.643.643 0 0 0 .001 1.285ZM204.856 183.132a.642.642 0 1 0 0-1.284.642.642 0 0 0 0 1.284ZM204.856 185.603a.642.642 0 1 0 0-1.284.642.642 0 0 0 0 1.284ZM202.686 165.839a.642.642 0 1 0-.002-1.284.642.642 0 0 0 .002 1.284ZM202.686 168.31a.641.641 0 1 0 0-1.282.641.641 0 0 0 0 1.282ZM202.686 170.781a.641.641 0 1 0 0-1.282.641.641 0 0 0 0 1.282ZM202.686 173.252a.641.641 0 1 0 0-1.282.641.641 0 0 0 0 1.282ZM202.686 175.723a.641.641 0 1 0 0-1.282.641.641 0 0 0 0 1.282ZM202.686 178.194a.641.641 0 1 0 0-1.282.641.641 0 0 0 0 1.282ZM202.686 180.666a.642.642 0 1 0-.002-1.284.642.642 0 0 0 .002 1.284ZM202.686 183.132a.641.641 0 1 0 0-1.282.641.641 0 0 0 0 1.282ZM202.686 185.603a.641.641 0 1 0 0-1.282.641.641 0 0 0 0 1.282ZM200.355 165.839a.642.642 0 1 0-.002-1.284.642.642 0 0 0 .002 1.284ZM200.355 168.31a.641.641 0 1 0 0-1.282.641.641 0 0 0 0 1.282ZM200.355 170.781a.641.641 0 1 0 0-1.282.641.641 0 0 0 0 1.282ZM200.355 173.252a.641.641 0 1 0 0-1.282.641.641 0 0 0 0 1.282ZM200.355 175.723a.641.641 0 1 0 0-1.282.641.641 0 0 0 0 1.282ZM200.355 178.194a.641.641 0 1 0 0-1.282.641.641 0 0 0 0 1.282ZM200.355 180.666a.642.642 0 1 0-.002-1.284.642.642 0 0 0 .002 1.284ZM200.355 183.132a.641.641 0 1 0 0-1.282.641.641 0 0 0 0 1.282ZM200.355 185.603a.641.641 0 1 0 0-1.282.641.641 0 0 0 0 1.282Z" fill="#B5B5B6" style="mix-blend-mode:multiply" opacity=".59"/></g></g><path d="M36.832 249.272v-18.045a4.16 4.16 0 0 1 4.16-4.161h55.063v21.95" stroke="#231815" stroke-width=".451" stroke-miterlimit="10"/><path d="M292.675 123.012H189.743a5.94 5.94 0 0 0-5.94 5.94v44.531a5.94 5.94 0 0 0 5.94 5.939h102.932a5.94 5.94 0 0 0 5.94-5.939v-44.531a5.94 5.94 0 0 0-5.94-5.94Z" fill="#fff"/><path d="M292.835 122.917H189.583a5.78 5.78 0 0 0-5.78 5.779v44.852a5.78 5.78 0 0 0 5.78 5.779h103.252a5.78 5.78 0 0 0 5.78-5.779v-44.852a5.78 5.78 0 0 0-5.78-5.779Z" stroke="#231815" stroke-width=".451" stroke-miterlimit="10"/><path d="M279.978 148.781h-82.019v3.549h82.019v-3.549ZM279.978 157.643h-82.019v3.549h82.019v-3.549ZM279.978 166.706h-82.019v3.549h82.019v-3.549Z" fill="#F4F6FA"/><path d="M361.577 249.372a53.348 53.348 0 0 0-5.169-49.864 53.346 53.346 0 0 0-88.504 0 53.348 53.348 0 0 0-5.169 49.864h98.842Z" fill="#49E5DB"/><path d="M361.577 249.372a53.348 53.348 0 0 0-5.169-49.864 53.346 53.346 0 0 0-88.504 0 53.348 53.348 0 0 0-5.169 49.864h98.842Z" stroke="#231815" stroke-width=".451" stroke-miterlimit="10"/><path d="M357.792 229.342a46.248 46.248 0 0 0-11.775-30.83 46.25 46.25 0 0 0-29.327-15.135" stroke="#fff" stroke-width=".451" stroke-miterlimit="10"/><path d="M320.875 227.332h-50.932v11.243h50.932v-11.243Z" fill="#fff" stroke="#231815" stroke-width=".451" stroke-miterlimit="10"/><path d="M320.89 227.332h-35.904v11.243h35.904v-11.243Z" fill="#2F54EB" stroke="#231815" stroke-width=".451" stroke-miterlimit="10"/><path d="M306.485 238.575h-51.103v10.391h51.103v-10.391Z" fill="#fff" stroke="#231815" stroke-width=".451" stroke-miterlimit="10"/><path d="M292.084 238.575h-36.702v10.391h36.702v-10.391Z" fill="#49E5DB" stroke="#231815" stroke-width=".451" stroke-miterlimit="10"/><path d="m233.603 240.665 6.2 8.426 41.088-29.965-6.206-8.546-41.082 30.085Z" fill="#F66" stroke="#231815" stroke-width=".451" stroke-miterlimit="10"/><path d="M306.85 227.172a7.604 7.604 0 1 0 0-15.208 7.604 7.604 0 0 0 0 15.208Z" fill="#F8DC29" stroke="#231815" stroke-width=".451" stroke-miterlimit="10"/><path d="M186.275 115.588a3.358 3.358 0 1 0 0-6.716 3.358 3.358 0 0 0 0 6.716Z" fill="#49E5DB" stroke="#231815" stroke-width=".451" stroke-miterlimit="10"/><path d="M198.425 115.588a3.357 3.357 0 1 0 .001-6.715 3.357 3.357 0 0 0-.001 6.715Z" fill="#2F54EB" stroke="#231815" stroke-width=".451" stroke-miterlimit="10"/><path d="M210.605 115.588a3.358 3.358 0 1 0 .001-6.717 3.358 3.358 0 0 0-.001 6.717Z" fill="#F66" stroke="#231815" stroke-width=".451" stroke-miterlimit="10"/><path d="M127.137 81.493a4.662 4.662 0 1 0 0-9.323 4.662 4.662 0 0 0 0 9.323Z" fill="#F8DC29" stroke="#231815" stroke-width=".451" stroke-miterlimit="10"/><path d="M36.897 206.495a4.662 4.662 0 1 0 0-9.323 4.662 4.662 0 0 0 0 9.323Z" fill="#F66" stroke="#231815" stroke-width=".451" stroke-miterlimit="10"/><path d="M37.524 203.538a4.662 4.662 0 1 0 0-9.323 4.662 4.662 0 0 0 0 9.323Z" fill="#F8DC29" stroke="#231815" stroke-width=".451" stroke-miterlimit="10"/><path d="M48.526 195.914H83.62M48.526 200.605h10.642" stroke="#231815" stroke-width=".451" stroke-miterlimit="10"/><path d="M65.283 246.575a5.303 5.303 0 1 0 0-10.606 5.303 5.303 0 0 0 0 10.606Z" fill="#F66331"/><path d="M65.283 246.575a5.303 5.303 0 1 0 0-10.606 5.303 5.303 0 0 0 0 10.606Z" fill="#F66" stroke="#231815" stroke-width=".451" stroke-miterlimit="10"/><path d="M210.139 131.368h-10.025v9.729h10.025v-9.729ZM225.026 131.368h-10.025v9.729h10.025v-9.729Z" stroke="#231815" stroke-width=".441" stroke-miterlimit="10"/><path d="M280.319 131.368h-50.666v9.729h50.666v-9.729ZM237.187 134.119l4.295 4.081M237.111 138.149l4.221-3.964M247.497 134.119l4.296 4.081M247.422 138.149l4.216-3.964M257.803 134.119l4.296 4.081M257.728 138.149l4.22-3.964M268.114 134.119l4.295 4.081M268.039 138.149l4.22-3.964" stroke="#231815" stroke-width=".451" stroke-miterlimit="10"/><path d="M317.662 229.096v7.559M289.071 240.064v7.559" stroke="#fff" stroke-width=".451" stroke-miterlimit="10"/><path d="M284.921 230.535h-5.429M279.838 233.557h-5.429M284.8 236.344h-5.428M297.778 243.036h-5.429M306.364 246.951h-5.423" stroke="#231815" stroke-width=".451" stroke-miterlimit="10"/><path d="m273.181 214.515 3.82 4.646M308.825 214.796s4.211 1.438 2.978 7.599" stroke="#fff" stroke-width=".451" stroke-miterlimit="10"/><path d="m193.257 193.638 6.627-1.449M241.848 244.064l22.551-16.171M40.747 233.111v11.233M324.564 244.941h30.396M274.369 203.763s4.772-10.075 17.143-16.085M274.74 97.237h-36.06" stroke="#231815" stroke-width=".451" stroke-miterlimit="10"/><path d="M315.031 130.896c11.339 0 20.531-9.192 20.531-20.531 0-11.339-9.192-20.531-20.531-20.531-11.339 0-20.531 9.192-20.531 20.531 0 11.339 9.192 20.531 20.531 20.531Z" fill="#F66" stroke="#231815" stroke-width=".506" stroke-miterlimit="10"/><path d="M312.334 126.866c11.339 0 20.531-9.192 20.531-20.531 0-11.339-9.192-20.531-20.531-20.531-11.339 0-20.531 9.192-20.531 20.531 0 11.339 9.192 20.531 20.531 20.531Z" fill="#fff" stroke="#231815" stroke-width=".506" stroke-miterlimit="10"/><path d="M312.334 85.804v20.897h20.531" stroke="#231815" stroke-width=".506" stroke-miterlimit="10"/><path d="M312.093 108.997a2.066 2.066 0 1 0 0-4.132 2.066 2.066 0 0 0 0 4.132Z" fill="#F66331"/><path d="M313.086 81.654s14.261 1.002 20.22 12.3" stroke="#231815" stroke-width=".506" stroke-miterlimit="10"/><path d="M122.842 213.583s2.345 11.889 12.781 11.889M122.26 229.603a34.028 34.028 0 0 0 15.464 4.857M134.476 191.863v-51.548M346.334 178.996s16.506 10.567 20.466 24.426" stroke="#231815" stroke-width=".451" stroke-miterlimit="10"/><path opacity=".39" d="M344.404 142.049s1.534 32.08 13.328 24.17c11.795-7.909 5.479-24.491.096-28.4-5.384-3.91-13.233-.607-13.424 4.23Z" fill="#C2D3F9"/><path d="M91.047 170.425s-8.576-4.857-6.491-18.496c0 0-7.614-11.574-8.07-12.947-.456-1.374-1.374-3.88 1.143-5.013 2.516-1.133 4.11-.23 5.403 1.599 1.293 1.83 5.188 8.602 5.188 8.602s-2.667-12.331-2.967-14.01c-.301-1.68-.156-4.261 2.892-4.873 3.047-.611 4.34 1.83 4.34 2.817 0 .988 2.893 13.534 2.893 13.534l1.218-12.717a3.646 3.646 0 0 1 4.035-2.892c3.424.306 3.579 2.817 3.424 3.81-.156.992-1.369 13.779-1.369 13.779v1.599s4.341-6.626 4.947-7.614c.607-.987 2.973-2.667 5.178-1.448 2.206 1.218 2.361 3.353 1.143 5.483-1.218 2.131-5.634 10.05-5.634 10.05s1.674 3.198-1.143 6.471l2.877 7.294-19.007 4.972Z" fill="#F9D3DC" stroke="#231815" stroke-width=".612" stroke-miterlimit="10"/><path d="M102.676 145.237s-5.639.045-7.945 6.682" stroke="#231815" stroke-width=".612" stroke-miterlimit="10"/><path d="M248.961 248.665c-4.14-11.499-9.023-25.488-9.524-27.654-.802-3.539-7.94-13.183-23.559-11.418 0 0-15.117-6.752-41.488-2.09l-47.183-12.03-13.904-31.078-26.717 7.063 20.01 42.205c1.443 3.058 4.18 5.469 13.343 8.361 9.163 2.892 34.506 8.772 34.506 8.772.071 6.319.603 12.625 1.594 18.867" fill="#fff"/><path d="M248.961 248.665c-4.14-11.499-9.023-25.488-9.524-27.654-.802-3.539-7.94-13.183-23.559-11.418 0 0-15.117-6.752-41.488-2.09l-47.183-12.03-13.904-31.078-26.717 7.063 20.01 42.205c1.443 3.058 4.18 5.469 13.343 8.361 9.163 2.892 34.506 8.772 34.506 8.772.071 6.319.603 12.625 1.594 18.867M221.437 226.435l7.84 22.551" stroke="#231815" stroke-width=".612" stroke-miterlimit="10"/><path d="M209.773 196.129s13.865-9.163 12.331-22.942c-1.534-13.78-10.526-23.429-32.516-20.481 0 0 4.591-7.835-1.083-15.674-5.674-7.84-17.744-8.822-24.135-.717-6.391 8.105-2.075 19.363 3.238 21.975 5.313 2.611 11.529 2.25 11.529 2.25l-.251 4.582 10.201-5.078 17.253 16.616s2.912-6.982 8.195-3.729c4.276 2.627 3.659 9.975-3.819 9.885l-.943 13.313Z" fill="#231815"/><path d="m209.929 187.643-.326 20.02s-1.855 7.709-11.028 7.869c-9.904.171-10.666-9.258-10.666-9.258l.1-10.561s-10.145-1.674-12.216-11.183a27.73 27.73 0 0 1 3.224-19.599l10.025-5.012 17.298 16.772s1.188-5.013 6.34-4.361c5.153.651 4.888 6.075 4.096 7.794-.792 1.719-3.434 3.434-5.815 2.637l-1.032 4.882Z" fill="#F9D3DC" stroke="#231815" stroke-width=".612" stroke-miterlimit="10"/><path d="M187.257 195.407s6.642 1.118 11.529-3.679l-11.003 13.814-.526-10.135Z" fill="#231815"/><path d="m211.643 177.618 4.712-2.356" stroke="#231815" stroke-width=".612" stroke-miterlimit="10"/><path d="m91.047 170.435 17.479-8.616 1.518 3.654-18.997 4.962Z" fill="#231815"/><path d="M139.954 220.395a3.375 3.375 0 1 0-.001-6.749 3.375 3.375 0 0 0 .001 6.749ZM95.363 169.423a3.37 3.37 0 0 1-.465 4.323 3.368 3.368 0 0 1-2.904.887 3.365 3.365 0 0 1-2.44-1.807 3.373 3.373 0 0 1-.361-1.519c0-.142.01-.285.03-.426M108.135 187.803a3.373 3.373 0 1 0 0-6.746 3.373 3.373 0 0 0 0 6.746ZM166.084 205.934a3.37 3.37 0 0 1-2.717 3.305 3.38 3.38 0 0 1-2.881-.773 3.37 3.37 0 0 1-.697-4.222M130.405 196.59a3.37 3.37 0 0 1-6.396.641 3.378 3.378 0 0 1 .336-3.252c.328-.469.77-.847 1.284-1.098M177.337 225.738a3.374 3.374 0 1 0 0-6.747 3.374 3.374 0 0 0 0 6.747ZM151.343 229.843a3.365 3.365 0 0 1 2.606-2.25 3.37 3.37 0 0 1 3.933 2.85 3.376 3.376 0 0 1-2.991 3.826M175.092 244.655a3.373 3.373 0 1 0 0-6.746 3.373 3.373 0 0 0 0 6.746ZM196.736 238.47a3.374 3.374 0 1 0-.001-6.747 3.374 3.374 0 0 0 .001 6.747ZM213.583 248.354a3.379 3.379 0 0 1 6.275-.145M224.45 234.209a3.38 3.38 0 0 1 2.784-.116 3.37 3.37 0 0 1 2.095 3.433 3.368 3.368 0 0 1-2.679 2.999M226.264 221.182a3.375 3.375 0 1 0-.001-6.749 3.375 3.375 0 0 0 .001 6.749ZM245.773 240.991a3.38 3.38 0 0 1-3.293-.132 3.365 3.365 0 0 1-1.609-2.876 3.376 3.376 0 0 1 2.692-3.303M206.29 213.999c.121.351.182.72.18 1.092a3.37 3.37 0 0 1-2.992 3.334 3.375 3.375 0 0 1-3.665-2.577M116.536 220.59a3.368 3.368 0 0 1 3.641-1.056 3.373 3.373 0 0 1 2.324 2.996M112.731 210.284a3.374 3.374 0 1 0 0-6.747 3.374 3.374 0 0 0 0 6.747Z" stroke="#49E5DB" stroke-width=".612" stroke-miterlimit="10"/><path d="M174.31 134.425s13.283.737 12.666 14.035" stroke="#fff" stroke-width=".612" stroke-miterlimit="10"/><path d="m153.889 230.695 5.694-10.08-3.539 29.073-1.413-18.782-.742-.211ZM185.252 186.626l10.978-5.89s2.506 7.057-1.549 9.524c-4.055 2.466-9.429-3.634-9.429-3.634Z" fill="#231815"/><path d="M190.621 189.643a7.817 7.817 0 0 1 5.198-4.321s.942 5.93-5.198 4.321Z" fill="#F9D3DC" stroke="#231815" stroke-width=".682" stroke-miterlimit="10"/><path d="m186.395 170.57-5.378 12.361 6.666-1.073" stroke="#231815" stroke-width=".612" stroke-miterlimit="10"/><path d="M180.169 174.55c.806 0 1.459-.796 1.459-1.779 0-.983-.653-1.78-1.459-1.78-.805 0-1.458.797-1.458 1.78s.653 1.779 1.458 1.779ZM192.415 175.142c.806 0 1.459-.797 1.459-1.78 0-.982-.653-1.779-1.459-1.779s-1.459.797-1.459 1.779c0 .983.653 1.78 1.459 1.78Z" fill="#231815"/><path d="M105.438 233.973a5.303 5.303 0 1 0 0-10.605 5.303 5.303 0 0 0 0 10.605Z" fill="#fff"/><path d="M82.962 249.026h45.494a3.172 3.172 0 0 0 3.172-3.173v-30.922a3.173 3.173 0 0 0-3.172-3.173H82.962a3.173 3.173 0 0 0-3.173 3.173v30.922a3.173 3.173 0 0 0 3.173 3.173Z" fill="#2F54EB" stroke="#231815" stroke-width=".456" stroke-miterlimit="10"/><path d="M105.438 233.973a5.303 5.303 0 1 0 0-10.605 5.303 5.303 0 0 0 0 10.605Z" fill="#fff"/><path d="M98.245 214.966h25.82a3.706 3.706 0 0 1 2.618 1.082 3.685 3.685 0 0 1 1.086 2.617v9.715" stroke="#fff" stroke-width=".451" stroke-miterlimit="10"/><path d="M83.82 219.979v22.546" stroke="#231815" stroke-width=".451" stroke-miterlimit="10"/><path d="M20.566 249.181h361.121" stroke="#000" stroke-width=".586" stroke-miterlimit="10"/></svg>