<?xml version="1.0" encoding="UTF-8"?>
<svg width="23px" height="29px" viewBox="0 0 23 29" version="1.1" xmlns="http://www.w3.org/2000/svg" xmlns:xlink="http://www.w3.org/1999/xlink">
    <!-- Generator: Sketch 47.1 (45422) - http://www.bohemiancoding.com/sketch -->
    <title>插图-数据库</title>
    <desc>Created with Sketch.</desc>
    <defs></defs>
    <g id="首页" stroke="none" stroke-width="1" fill="none" fill-rule="evenodd">
        <g transform="translate(-709.000000, -1376.000000)" id="What-can-Pro-do-for-you">
            <g transform="translate(151.000000, 0.000000)">
                <g id="8.Mock-数据" transform="translate(460.000000, 1329.000000)">
                    <g id="插图-数据库" transform="translate(98.000000, 47.000000)">
                        <path d="M21.3333333,3 L4.66666667,3 C3.74739583,3 3,3.72871094 3,4.625 L3,27.375 C3,28.2712891 3.74739583,29 4.66666667,29 L21.3333333,29 C22.2526042,29 23,28.2712891 23,27.375 L23,4.625 C23,3.72871094 22.2526042,3 21.3333333,3 Z" id="Shape" fill-opacity="0.4" fill="#EB2F96" fill-rule="nonzero"></path>
                        <ellipse id="Oval" cx="5" cy="13" rx="1" ry="1"></ellipse>
                        <path d="M1.66666667,16.3261719 L18.3333333,16.3261719 L18.3333333,9.69921875 L1.66666667,9.69921875 L1.66666667,16.3261719 Z M5,11.375 C5.91927083,11.375 6.66666667,12.1037109 6.66666667,13 C6.66666667,13.8962891 5.91927083,14.625 5,14.625 C4.08072917,14.625 3.33333333,13.8962891 3.33333333,13 C3.33333333,12.1037109 4.08072917,11.375 5,11.375 Z" id="Shape"></path>
                        <path d="M1.66666667,24.375 L18.3333333,24.375 L18.3333333,17.7480469 L1.66666667,17.7480469 L1.66666667,24.375 Z M5,19.5 C5.91927083,19.5 6.66666667,20.2287109 6.66666667,21.125 C6.66666667,22.0212891 5.91927083,22.75 5,22.75 C4.08072917,22.75 3.33333333,22.0212891 3.33333333,21.125 C3.33333333,20.2287109 4.08072917,19.5 5,19.5 Z" id="Shape"></path>
                        <ellipse id="Oval" cx="5" cy="21.125" rx="1" ry="1"></ellipse>
                        <path d="M1.66666667,8.27734375 L18.3333333,8.27734375 L18.3333333,1.625 L1.66666667,1.625 L1.66666667,8.27734375 Z M5,3.25 C5.91927083,3.25 6.66666667,3.97871094 6.66666667,4.875 C6.66666667,5.77128906 5.91927083,6.5 5,6.5 C4.08072917,6.5 3.33333333,5.77128906 3.33333333,4.875 C3.33333333,3.97871094 4.08072917,3.25 5,3.25 Z" id="Shape"></path>
                        <ellipse id="Oval" cx="5" cy="4.875" rx="1" ry="1"></ellipse>
                        <path d="M18.3333333,0 L1.66666667,0 C0.747395833,0 0,0.728710937 0,1.625 L0,24.375 C0,25.2712891 0.747395833,26 1.66666667,26 L18.3333333,26 C19.2526042,26 20,25.2712891 20,24.375 L20,1.625 C20,0.728710937 19.2526042,0 18.3333333,0 Z M18.3333333,24.375 L1.66666667,24.375 L1.66666667,17.7480469 L18.3333333,17.7480469 L18.3333333,24.375 Z M18.3333333,16.3261719 L1.66666667,16.3261719 L1.66666667,9.69921875 L18.3333333,9.69921875 L18.3333333,16.3261719 Z M18.3333333,8.27734375 L1.66666667,8.27734375 L1.66666667,1.625 L18.3333333,1.625 L18.3333333,8.27734375 Z" id="Shape" fill="#EB2F96" fill-rule="nonzero"></path>
                        <path d="M5,6.5 C5.91927083,6.5 6.66666667,5.77128906 6.66666667,4.875 C6.66666667,3.97871094 5.91927083,3.25 5,3.25 C4.08072917,3.25 3.33333333,3.97871094 3.33333333,4.875 C3.33333333,5.77128906 4.08072917,6.5 5,6.5 Z M5,4.265625 C5.34635417,4.265625 5.625,4.53730469 5.625,4.875 C5.625,5.21269531 5.34635417,5.484375 5,5.484375 C4.65364583,5.484375 4.375,5.21269531 4.375,4.875 C4.375,4.53730469 4.65364583,4.265625 5,4.265625 Z" id="Shape" fill="#EB2F96" fill-rule="nonzero"></path>
                        <path d="M5,14.625 C5.91927083,14.625 6.66666667,13.8962891 6.66666667,13 C6.66666667,12.1037109 5.91927083,11.375 5,11.375 C4.08072917,11.375 3.33333333,12.1037109 3.33333333,13 C3.33333333,13.8962891 4.08072917,14.625 5,14.625 Z M5,12.390625 C5.34635417,12.390625 5.625,12.6623047 5.625,13 C5.625,13.3376953 5.34635417,13.609375 5,13.609375 C4.65364583,13.609375 4.375,13.3376953 4.375,13 C4.375,12.6623047 4.65364583,12.390625 5,12.390625 Z" id="Shape" fill="#EB2F96" fill-rule="nonzero"></path>
                        <path d="M5,22.75 C5.91927083,22.75 6.66666667,22.0212891 6.66666667,21.125 C6.66666667,20.2287109 5.91927083,19.5 5,19.5 C4.08072917,19.5 3.33333333,20.2287109 3.33333333,21.125 C3.33333333,22.0212891 4.08072917,22.75 5,22.75 Z M5,20.515625 C5.34635417,20.515625 5.625,20.7873047 5.625,21.125 C5.625,21.4626953 5.34635417,21.734375 5,21.734375 C4.65364583,21.734375 4.375,21.4626953 4.375,21.125 C4.375,20.7873047 4.65364583,20.515625 5,20.515625 Z" id="Shape" fill="#EB2F96" fill-rule="nonzero"></path>
                    </g>
                </g>
            </g>
        </g>
    </g>
</svg>