<?xml version="1.0" encoding="UTF-8"?>
<svg width="25px" height="25px" viewBox="0 0 25 25" version="1.1" xmlns="http://www.w3.org/2000/svg" xmlns:xlink="http://www.w3.org/1999/xlink">
    <!-- Generator: Sketch 47.1 (45422) - http://www.bohemiancoding.com/sketch -->
    <title>插图-设计模式</title>
    <desc>Created with Sketch.</desc>
    <defs></defs>
    <g id="首页" stroke="none" stroke-width="1" fill="none" fill-rule="evenodd">
        <g transform="translate(-709.000000, -837.000000)" id="What-can-Pro-do-for-you">
            <g transform="translate(151.000000, 0.000000)">
                <g id="2.常见设计模式" transform="translate(460.000000, 788.000000)">
                    <g id="插图-设计模式" transform="translate(98.000000, 49.000000)">
                        <path d="M11.3392857,2.5 C12.0979911,2.5 12.7142857,3.11629464 12.7142857,3.875 L12.7142857,12.9107143 C12.7142857,13.6694196 12.0979911,14.2857143 11.3392857,14.2857143 L3.875,14.2857143 C3.11629464,14.2857143 2.5,13.6694196 2.5,12.9107143 L2.5,3.875 C2.5,3.11629464 3.11629464,2.5 3.875,2.5 L11.3392857,2.5 Z M11.3392857,15.8571429 C12.0979911,15.8571429 12.7142857,16.4734375 12.7142857,17.2321429 L12.7142857,23.125 C12.7142857,23.8837054 12.0979911,24.5 11.3392857,24.5 L3.875,24.5 C3.11629464,24.5 2.5,23.8837054 2.5,23.125 L2.5,17.2321429 C2.5,16.4734375 3.11629464,15.8571429 3.875,15.8571429 L11.3392857,15.8571429 Z M23.125,2.5 C23.8837054,2.5 24.5,3.11629464 24.5,3.875 L24.5,9.76785714 C24.5,10.5265625 23.8837054,11.1428571 23.125,11.1428571 L15.6607143,11.1428571 C14.9020089,11.1428571 14.2857143,10.5265625 14.2857143,9.76785714 L14.2857143,3.875 C14.2857143,3.11629464 14.9020089,2.5 15.6607143,2.5 L23.125,2.5 Z M23.125,12.7142857 C23.8837054,12.7142857 24.5,13.3305804 24.5,14.0892857 L24.5,23.125 C24.5,23.8837054 23.8837054,24.5 23.125,24.5 L15.6607143,24.5 C14.9020089,24.5 14.2857143,23.8837054 14.2857143,23.125 L14.2857143,14.0892857 C14.2857143,13.3305804 14.9020089,12.7142857 15.6607143,12.7142857 L23.125,12.7142857 Z" id="Combined-Shape" fill-opacity="0.4" fill="#2F54EB" fill-rule="nonzero"></path>
                        <rect id="Rectangle-path" x="13.1607143" y="11.5892857" width="7.46428571" height="9.03571429"></rect>
                        <rect id="Rectangle-path" x="1.375" y="14.7321429" width="7.46428571" height="5.89285714"></rect>
                        <rect id="Rectangle-path" x="1.375" y="1.375" width="7.46428571" height="9.03571429"></rect>
                        <rect id="Rectangle-path" x="13.1607143" y="1.375" width="7.46428571" height="5.89285714"></rect>
                        <path d="M8.83928571,0 L1.375,0 C0.616294643,0 0,0.616294643 0,1.375 L0,10.4107143 C0,11.1694196 0.616294643,11.7857143 1.375,11.7857143 L8.83928571,11.7857143 C9.59799107,11.7857143 10.2142857,11.1694196 10.2142857,10.4107143 L10.2142857,1.375 C10.2142857,0.616294643 9.59799107,0 8.83928571,0 Z M8.83928571,10.4107143 L1.375,10.4107143 L1.375,1.375 L8.83928571,1.375 L8.83928571,10.4107143 Z" id="Shape" fill="#2F54EB" fill-rule="nonzero"></path>
                        <path d="M8.83928571,13.3571429 L1.375,13.3571429 C0.616294643,13.3571429 0,13.9734375 0,14.7321429 L0,20.625 C0,21.3837054 0.616294643,22 1.375,22 L8.83928571,22 C9.59799107,22 10.2142857,21.3837054 10.2142857,20.625 L10.2142857,14.7321429 C10.2142857,13.9734375 9.59799107,13.3571429 8.83928571,13.3571429 Z M8.83928571,20.625 L1.375,20.625 L1.375,14.7321429 L8.83928571,14.7321429 L8.83928571,20.625 Z" id="Shape" fill="#2F54EB" fill-rule="nonzero"></path>
                        <path d="M20.625,0 L13.1607143,0 C12.4020089,0 11.7857143,0.616294643 11.7857143,1.375 L11.7857143,7.26785714 C11.7857143,8.0265625 12.4020089,8.64285714 13.1607143,8.64285714 L20.625,8.64285714 C21.3837054,8.64285714 22,8.0265625 22,7.26785714 L22,1.375 C22,0.616294643 21.3837054,0 20.625,0 Z M20.625,7.26785714 L13.1607143,7.26785714 L13.1607143,1.375 L20.625,1.375 L20.625,7.26785714 Z" id="Shape" fill="#2F54EB" fill-rule="nonzero"></path>
                        <path d="M20.625,10.2142857 L13.1607143,10.2142857 C12.4020089,10.2142857 11.7857143,10.8305804 11.7857143,11.5892857 L11.7857143,20.625 C11.7857143,21.3837054 12.4020089,22 13.1607143,22 L20.625,22 C21.3837054,22 22,21.3837054 22,20.625 L22,11.5892857 C22,10.8305804 21.3837054,10.2142857 20.625,10.2142857 Z M20.625,20.625 L13.1607143,20.625 L13.1607143,11.5892857 L20.625,11.5892857 L20.625,20.625 Z" id="Shape" fill="#2F54EB" fill-rule="nonzero"></path>
                    </g>
                </g>
            </g>
        </g>
    </g>
</svg>