<?xml version="1.0" encoding="UTF-8"?>
<svg width="25px" height="28px" viewBox="0 0 25 28" version="1.1" xmlns="http://www.w3.org/2000/svg" xmlns:xlink="http://www.w3.org/1999/xlink">
    <!-- Generator: Sketch 47.1 (45422) - http://www.bohemiancoding.com/sketch -->
    <title>插图-实践</title>
    <desc>Created with Sketch.</desc>
    <defs></defs>
    <g id="首页" stroke="none" stroke-width="1" fill="none" fill-rule="evenodd">
        <g transform="translate(-300.000000, -1377.000000)" id="What-can-Pro-do-for-you" fill-rule="nonzero" fill="#FA8C16">
            <g transform="translate(151.000000, 0.000000)">
                <g id="7.最佳实践" transform="translate(54.000000, 1328.000000)">
                    <g id="插图-实践" transform="translate(95.000000, 49.000000)">
                        <path d="M24.8285714,4.8909699 L24.6919643,4.31571906 L24.1160714,4.17658863 C23.7866071,4.09632107 23.1892857,4.00267559 22.1982143,4.00267559 C20.3232143,4.00267559 17.96875,4.3451505 15.90625,4.91772575 C14.7758929,5.23076923 13.7660714,5.6 12.90625,6.01471572 C12.0169643,6.44280936 11.2910714,6.9270903 10.8035714,7.41404682 C10.3589286,7.85819398 9.77767857,8.73846154 9.07321429,10.0307692 C8.90982143,10.3304348 8.74107143,10.651505 8.56696429,10.9939799 C7.13928571,11.4006689 5.44107143,12.4040134 4.72321429,12.8561873 C3.09464286,13.8755853 1.77410714,14.9431438 1.19553571,15.7083612 C1.01339286,15.9491639 0.954464286,16.2622074 1.0375,16.5538462 C1.12053571,16.8454849 1.33482143,17.0809365 1.61875,17.1879599 C1.79821429,17.2575251 1.99375,17.3297659 2.2,17.4100334 C3.1375,17.7658863 4.28392857,18.1966555 5.17321429,18.6327759 L5.17053571,18.6381271 L10.3294643,23.7966555 C10.7660714,24.6876254 11.2026786,25.8408027 11.5616071,26.7852843 C11.6392857,26.9913043 11.7142857,27.1866221 11.7839286,27.3658863 C11.89375,27.6494983 12.1267857,27.8635452 12.41875,27.9464883 C12.5071429,27.9705686 12.5955357,27.9839465 12.6839286,27.9839465 C12.8901786,27.9839465 13.0964286,27.9170569 13.2651786,27.7886288 C14.03125,27.2107023 15.1,25.8916388 16.1205357,24.2648829 C16.5705357,23.5451505 17.575,21.8541806 17.9875,20.4254181 C18.3357143,20.2488294 18.6651786,20.077592 18.9705357,19.9117057 C20.2723214,19.2053512 21.1535714,18.6220736 21.5928571,18.1779264 C22.8517857,16.9204013 23.9660714,14.2207358 24.5767857,10.9565217 C24.8419643,9.53311037 24.9919643,8.08561873 24.9973214,6.88160535 C25.0053571,5.85685619 24.9116071,5.23344482 24.8285714,4.8909699 L24.8285714,4.8909699 Z" id="Shape" fill-opacity="0.3"></path>
                        <path d="M23.8285714,0.8909699 L23.6919643,0.315719064 L23.1160714,0.176588629 C22.7866071,0.0963210702 22.1892857,0.00267558528 21.1982143,0.00267558528 C19.3232143,0.00267558528 16.96875,0.345150502 14.90625,0.917725753 C13.7758929,1.23076923 12.7660714,1.6 11.90625,2.01471572 C11.0169643,2.44280936 10.2910714,2.9270903 9.80357143,3.41404682 C9.35892857,3.85819398 8.77767857,4.73846154 8.07321429,6.03076923 C7.90982143,6.33043478 7.74107143,6.65150502 7.56696429,6.99397993 C6.13928571,7.4006689 4.44107143,8.40401338 3.72321429,8.85618729 C2.09464286,9.87558528 0.774107143,10.9431438 0.195535714,11.7083612 C0.0133928571,11.9491639 -0.0455357143,12.2622074 0.0375,12.5538462 C0.120535714,12.8454849 0.334821429,13.0809365 0.61875,13.1879599 C0.798214286,13.2575251 0.99375,13.3297659 1.2,13.4100334 C2.1375,13.7658863 3.28392857,14.1966555 4.17321429,14.6327759 L4.17053571,14.6381271 L9.32946429,19.7966555 C9.76607143,20.6876254 10.2026786,21.8408027 10.5616071,22.7852843 C10.6392857,22.9913043 10.7142857,23.1866221 10.7839286,23.3658863 C10.89375,23.6494983 11.1267857,23.8635452 11.41875,23.9464883 C11.5071429,23.9705686 11.5955357,23.9839465 11.6839286,23.9839465 C11.8901786,23.9839465 12.0964286,23.9170569 12.2651786,23.7886288 C13.03125,23.2107023 14.1,21.8916388 15.1205357,20.2648829 C15.5705357,19.5451505 16.575,17.8541806 16.9875,16.4254181 C17.3357143,16.2488294 17.6651786,16.077592 17.9705357,15.9117057 C19.2723214,15.2053512 20.1535714,14.6220736 20.5928571,14.1779264 C21.8517857,12.9204013 22.9660714,10.2207358 23.5767857,6.95652174 C23.8419643,5.53311037 23.9919643,4.08561873 23.9973214,2.88160535 C24.0053571,1.85685619 23.9116071,1.23344482 23.8285714,0.8909699 L23.8285714,0.8909699 Z M6.12857143,10.0227425 C5.67053571,11.0421405 5.25267857,12.0214047 4.90714286,12.8454849 C4.22678571,12.5190635 3.45,12.2086957 2.71875,11.9250836 C3.23571429,11.5023411 3.92142857,11.0046823 4.74910714,10.4882943 C5.29017857,10.148495 5.82589286,9.84347826 6.32678571,9.58929766 C6.25982143,9.73110368 6.19285714,9.87558528 6.12857143,10.0227425 Z M13.4866071,19.2401338 C12.9696429,20.064214 12.4714286,20.7491639 12.0482143,21.2682274 C11.7669643,20.5404682 11.4535714,19.7645485 11.1294643,19.0849498 C11.9571429,18.7397993 12.9401786,18.3197324 13.9714286,17.8568562 C14.1107143,17.7926421 14.25,17.7311037 14.3866071,17.6695652 C14.1294643,18.1672241 13.8241071,18.6996656 13.4866071,19.2401338 L13.4866071,19.2401338 Z M22.0714286,2.86822742 C22.0660714,3.96254181 21.9294643,5.28695652 21.6830357,6.6006689 C21.4151786,8.02943144 21.0348214,9.37525084 20.5794643,10.4989967 C20.15625,11.5451505 19.6767857,12.3692308 19.2294643,12.8133779 L19.2241071,12.8187291 C19.1169643,12.9284281 18.6401786,13.3511706 17.0491071,14.2153846 C16.0098214,14.7772575 14.7080357,15.4113712 13.1758929,16.1016722 C11.9116071,16.6688963 10.7169643,17.1719064 9.80625,17.5491639 L6.44196429,14.1779264 C6.81696429,13.2655518 7.32321429,12.0695652 7.88839286,10.8120401 C8.58214286,9.2735786 9.21696429,7.97324415 9.77410714,6.9458194 C10.6339286,5.36722408 11.0625,4.88294314 11.1723214,4.77324415 C11.5017857,4.44414716 12.0616071,4.08026756 12.75,3.74849498 C13.5053571,3.38461538 14.4053571,3.05551839 15.4258929,2.77458194 C17.3303571,2.24214047 19.4892857,1.9264214 21.2008929,1.9264214 C21.5464286,1.9264214 21.8223214,1.93979933 22.0419643,1.95852843 C22.0607143,2.19397993 22.0741071,2.49364548 22.0714286,2.86822742 Z M3.24642857,18.4026756 C2.19910714,18.4026756 1.31517857,19.0956522 1.02857143,20.0508361 L0.0214285714,23.373913 C0.00803571429,23.4167224 0,23.4622074 0,23.5076923 C0,23.7645485 0.20625,23.9732441 0.463392857,23.9732441 C0.511607143,23.9732441 0.554464286,23.9652174 0.597321429,23.9518395 L3.91875,22.9431438 C4.86964286,22.6541806 5.56339286,21.7685619 5.56339286,20.722408 C5.56339286,19.4408027 4.52678571,18.4026756 3.24642857,18.4026756 Z" id="Shape"></path>
                        <path d="M14.2162123,9.77278518 C14.6492911,10.2053661 15.2805093,10.3743002 15.8720929,10.2159515 C16.4636765,10.0576028 16.9257501,9.59602832 17.0842548,9.00509867 C17.2427596,8.41416901 17.073615,7.78366048 16.6405361,7.35107955 C16.2074572,6.91849858 15.5762391,6.74956452 14.9846555,6.90791322 C14.3930718,7.06626191 13.9309983,7.5278364 13.7724935,8.11876606 C13.6139888,8.70969571 13.7831334,9.34020424 14.2162123,9.77278518 Z" id="Shape"></path>
                    </g>
                </g>
            </g>
        </g>
    </g>
</svg>