<?xml version="1.0" encoding="UTF-8"?>
<svg width="42px" height="48px" viewBox="0 0 42 48" version="1.1" xmlns="http://www.w3.org/2000/svg" xmlns:xlink="http://www.w3.org/1999/xlink">
    <!-- Generator: Sketch 47.1 (45422) - http://www.bohemiancoding.com/sketch -->
    <title>插图-主题</title>
    <desc>Created with Sketch.</desc>
    <defs></defs>
    <g id="首页" stroke="none" stroke-width="1" fill="none" fill-rule="evenodd">
        <g transform="translate(-693.000000, -1096.000000)" id="What-can-Pro-do-for-you" fill-rule="nonzero" fill="#FAAD14">
            <g transform="translate(151.000000, 0.000000)">
                <g id="5.主题" transform="translate(460.000000, 1058.000000)">
                    <g id="插图-主题" transform="translate(82.000000, 38.000000)">
                        <path d="M30.817623,26.5431137 L36.7625423,24.1124401 L32.3339335,19.5037566 L31.8428207,13.1628688 L26.0452352,15.9105869 L19.7958261,14.4201138 L20.6405399,20.7306333 L17.2715067,26.1544003 L23.5908995,27.3011049 L27.7543075,32.1430165 L30.817623,26.5443285 L30.817623,26.5431137 Z M22.5607906,28.9604253 L16.004436,27.7712052 C15.6064463,27.6983604 15.2703115,27.4361355 15.1058843,27.0702287 C14.9414571,26.704322 14.9698644,26.2817476 15.1818222,25.9406079 L18.6760891,20.3127664 L17.8006807,13.7665894 C17.7477001,13.3696255 17.8958495,12.9723284 18.1967184,12.7045221 C18.4975874,12.4367158 18.9125243,12.3328044 19.3059411,12.4267428 L25.7886289,13.9730934 L31.8023039,11.1196939 C32.1679243,10.9460023 32.5966539,10.9621603 32.9478591,11.1628676 C33.2990642,11.363575 33.5274244,11.7229318 33.5580319,12.1230604 L34.0675613,18.7020351 L38.6619207,23.4832102 C38.9407353,23.7732906 39.0572016,24.1806519 38.9732807,24.5722466 C38.8893598,24.9638413 38.6158266,25.2893911 38.2420193,25.4425688 L32.0736437,27.9655619 L28.8961445,33.7743981 C28.7033226,34.1268048 28.3472353,34.3624503 27.9444063,34.4042236 C27.5415772,34.4459969 27.1438427,34.2885226 26.8813546,33.9833316 L22.5607906,28.96164 L22.5607906,28.9604253 Z" id="Shape"></path>
                        <path d="M33.6276497,28.5495196 L38.492872,33.349598 C38.6773311,33.5309359 38.7809089,33.777312 38.7806785,34.034191 C38.780448,34.2910699 38.6764283,34.5372648 38.491644,34.7182804 C38.107491,35.0929613 37.4895316,35.0940401 37.1040364,34.7207029 L32.2375862,29.9206245 C32.0532893,29.7391255 31.9499322,29.4926588 31.9503932,29.2357797 C31.9508541,28.9789007 32.055095,28.7327964 32.2400421,28.551942 C32.6248017,28.1782483 33.2422201,28.1777094 33.6276497,28.5507308 L33.6276497,28.5495196 Z" id="Shape"></path>
                        <path d="M24.9307247,30.8780421 L18.920733,29.7604902 C18.5559091,29.6920353 18.2477855,29.4456134 18.0970606,29.101758 C17.9463357,28.7579026 17.9723757,28.3607946 18.1666703,28.0402136 L21.3697483,22.7515334 L20.5672906,16.5998611 C20.5187251,16.2268202 20.6545287,15.8534663 20.9303252,15.6017993 C21.2061218,15.3501323 21.5864806,15.2524831 21.9471127,15.3407603 L27.8895765,16.7939202 L33.4021119,14.1124805 C33.737264,13.9492565 34.1302661,13.9644407 34.4522041,14.1530524 C34.7741422,14.3416642 34.9834723,14.6793644 35.0115292,15.0553793 L35.4785979,21.2378727 L39.690094,25.7309108 C39.9456741,26.0035095 40.0524348,26.3863212 39.9755073,26.7543165 C39.8985799,27.1223118 39.6478411,27.4282424 39.3051844,27.5721889 L33.6508401,29.943134 L30.7381325,35.4019013 C30.561379,35.7330702 30.2349657,35.9545146 29.8657057,35.9937704 C29.4964458,36.0330263 29.1318558,35.8850421 28.8912417,35.5982434 L24.9307247,30.8791836 L24.9307247,30.8780421 Z" id="Combined-Shape" fill-opacity="0.4"></path>
                        <path d="M2.52026353,28.1374698 L0.334811984,27.7310873 C0.202148774,27.7061947 0.0901038242,27.6165867 0.035294768,27.4915484 C-0.0195142881,27.36651 -0.0100452092,27.2221071 0.0606073961,27.1055322 L1.22536303,25.1823758 L0.933560232,22.945404 C0.915900032,22.8097528 0.965283164,22.6739877 1.06557281,22.5824725 C1.16586246,22.4909572 1.30417476,22.4554484 1.43531371,22.4875492 L3.59620962,23.015971 L5.60076798,22.040902 C5.72264144,21.9815478 5.8655513,21.9870693 5.98261968,22.0556554 C6.09968807,22.1242415 6.17580812,22.2470416 6.18601063,22.3837743 L6.35585377,24.6319537 L7.88730689,26.2657858 C7.98024511,26.3649125 8.01906722,26.5041168 7.99109358,26.6379333 C7.96311995,26.7717497 7.8719422,26.8829972 7.74733977,26.9353414 L5.69121458,27.7975033 L4.63204817,29.7825096 C4.56777419,29.9029346 4.44907842,29.9834598 4.31480208,29.9977347 C4.18052575,30.0120095 4.04794756,29.9581971 3.96045154,29.8539067 L2.52026353,28.1378849 L2.52026353,28.1374698 Z" id="Combined-Shape" fill-opacity="0.4"></path>
                        <path d="M30.2601318,47.0687349 L29.167406,46.8655437 C29.1010744,46.8530973 29.0450519,46.8082933 29.0176474,46.7457742 C28.9902429,46.683255 28.9949774,46.6110536 29.0303037,46.5527661 L29.6126815,45.5911879 L29.4667801,44.472702 C29.45795,44.4048764 29.4826416,44.3369939 29.5327864,44.2912362 C29.5829312,44.2454786 29.6520874,44.2277242 29.7176569,44.2437746 L30.7981048,44.5079855 L31.800384,44.020451 C31.8613207,43.9907739 31.9327756,43.9935347 31.9913098,44.0278277 C32.049844,44.0621208 32.0879041,44.1235208 32.0930053,44.1918871 L32.1779269,45.3159769 L32.9436534,46.1328929 C32.9901226,46.1824563 33.0095336,46.2520584 32.9955468,46.3189666 C32.98156,46.3858749 32.9359711,46.4414986 32.8736699,46.4676707 L31.8456073,46.8987516 L31.3160241,47.8912548 C31.2838871,47.9514673 31.2245392,47.9917299 31.157401,47.9988673 C31.0902629,48.0060048 31.0239738,47.9790986 30.9802258,47.9269533 L30.2601318,47.0689425 L30.2601318,47.0687349 Z" id="Combined-Shape" fill-opacity="0.4"></path>
                        <path d="M38.5751647,3.83591865 L37.2092575,3.58192958 C37.126343,3.56637167 37.0563149,3.51036668 37.0220592,3.43221772 C36.9878036,3.35406876 36.9937217,3.26381695 37.0378796,3.19095765 L37.7658519,1.98898487 L37.5834751,0.59087753 C37.5724375,0.506095506 37.603302,0.421242331 37.665983,0.36404529 C37.728664,0.30684825 37.8151092,0.284655249 37.8970711,0.304718246 L39.247631,0.634981861 L40.50048,0.0255637607 C40.5766509,-0.0115326239 40.6659696,-0.00808166484 40.7391373,0.0347846405 C40.812305,0.0776509458 40.8598801,0.154400995 40.8662566,0.239858931 L40.9724086,1.64497108 L41.9295668,2.66611609 C41.9876532,2.72807034 42.011917,2.81507301 41.9944335,2.8987083 C41.97695,2.98234358 41.9199639,3.05187327 41.8420874,3.08458838 L40.5570091,3.62343955 L39.8950301,4.86406848 C39.8548589,4.93933413 39.780674,4.9896624 39.6967513,4.99858418 C39.6128286,5.00750597 39.5299672,4.97387321 39.4752822,4.90869168 L38.5751647,3.83617809 L38.5751647,3.83591865 Z" id="Combined-Shape" fill-opacity="0.4"></path>
                    </g>
                </g>
            </g>
        </g>
    </g>
</svg>