<?xml version="1.0" encoding="UTF-8"?>
<svg width="24px" height="24px" viewBox="0 0 24 24" version="1.1" xmlns="http://www.w3.org/2000/svg" xmlns:xlink="http://www.w3.org/1999/xlink">
    <!-- Generator: Sketch 47.1 (45422) - http://www.bohemiancoding.com/sketch -->
    <title>插图-优雅美观</title>
    <desc>Created with Sketch.</desc>
    <defs></defs>
    <g id="首页" stroke="none" stroke-width="1" fill="none" fill-rule="evenodd">
        <g transform="translate(-302.000000, -838.000000)" id="What-can-Pro-do-for-you" fill-rule="nonzero" fill="#13C2C2">
            <g transform="translate(151.000000, 0.000000)">
                <g id="1.优雅美观" transform="translate(54.000000, 788.000000)">
                    <g id="插图-优雅美观" transform="translate(97.000000, 50.000000)">
                        <path d="M22.3125,3 L16.2351563,3 C16.2140625,3.08671875 16.1882812,3.1734375 16.1601562,3.2578125 C15.7804687,4.36171875 14.7328125,5.15625 13.5,5.15625 C12.2671875,5.15625 11.2195313,4.36171875 10.8398438,3.2578125 C10.8117188,3.1734375 10.7859375,3.08671875 10.7648438,3 L4.6875,3 C3.7546875,3 3,3.7546875 3,4.6875 L3,13.3125 C3,14.2453125 3.7546875,15 4.6875,15 L6,15 L6,22.3125 C6,23.2453125 6.7546875,24 7.6875,24 L19.3125,24 C20.2453125,24 21,23.2453125 21,22.3125 L21,15 L22.3125,15 C23.2453125,15 24,14.2453125 24,13.3125 L24,4.6875 C24,3.7546875 23.2453125,3 22.3125,3 Z" id="Shape" fill-opacity="0.4"></path>
                        <path d="M19.3125,0 L13.2351563,0 C13.2140625,0.08671875 13.1882812,0.1734375 13.1601562,0.2578125 C12.7804687,1.36171875 11.7328125,2.15625 10.5,2.15625 C9.2671875,2.15625 8.21953125,1.36171875 7.83984375,0.2578125 C7.81171875,0.1734375 7.7859375,0.08671875 7.76484375,0 L1.6875,0 C0.7546875,0 0,0.7546875 0,1.6875 L0,10.3125 C0,11.2453125 0.7546875,12 1.6875,12 L3,12 L3,19.3125 C3,20.2453125 3.7546875,21 4.6875,21 L16.3125,21 C17.2453125,21 18,20.2453125 18,19.3125 L18,12 L19.3125,12 C20.2453125,12 21,11.2453125 21,10.3125 L21,1.6875 C21,0.7546875 20.2453125,0 19.3125,0 Z M19.3125,10.3125 L16.2890625,10.3125 C16.303125,10.3125 16.3125,10.3242187 16.3125,10.3359375 L16.3125,19.2890625 C16.3125,19.303125 16.3007812,19.3125 16.2890625,19.3125 L4.7109375,19.3125 C4.696875,19.3125 4.6875,19.3007812 4.6875,19.2890625 L4.6875,10.3359375 C4.6875,10.321875 4.69921875,10.3125 4.7109375,10.3125 L1.6875,10.3125 L1.6875,1.6875 L6.61640625,1.6875 C7.396875,3.01875 8.8453125,3.9140625 10.5,3.9140625 C12.1546875,3.9140625 13.603125,3.01875 14.3835937,1.6875 L19.3125,1.6875 L19.3125,10.3125 Z" id="Shape"></path>
                    </g>
                </g>
            </g>
        </g>
    </g>
</svg>