<?xml version="1.0" encoding="UTF-8"?>
<svg width="26px" height="26px" viewBox="0 0 26 26" version="1.1" xmlns="http://www.w3.org/2000/svg" xmlns:xlink="http://www.w3.org/1999/xlink">
    <!-- Generator: Sketch 47.1 (45422) - http://www.bohemiancoding.com/sketch -->
    <title>插图-技术栈</title>
    <desc>Created with Sketch.</desc>
    <defs></defs>
    <g id="首页" stroke="none" stroke-width="1" fill="none" fill-rule="evenodd">
        <g transform="translate(-1117.000000, -836.000000)" id="What-can-Pro-do-for-you" fill-rule="nonzero" fill="#F5222D">
            <g transform="translate(151.000000, 0.000000)">
                <g id="3.最新技术栈" transform="translate(870.000000, 788.000000)">
                    <g id="插图-技术栈" transform="translate(96.000000, 48.000000)">
                        <path d="M2.6,9.03343109 L13.7,15.0392962 L14.3,15.0392962 L25.55,9.03343109 C25.85,8.88328446 26,8.73313783 26,8.43284457 C26,8.13255132 25.85,7.83225806 25.55,7.83225806 L14.45,2.12668622 C14.3,1.97653959 14,1.97653959 13.85,2.12668622 L2.6,7.68211144 C2.3,7.83225806 2.15,8.13255132 2.15,8.43284457 C2.15,8.73313783 2.3,8.88328446 2.6,9.03343109 Z M25.4,13.2375367 L23.15,12.1865103 L21.5,13.08739 L23.45,13.9882698 L13.85,19.2434018 L4.4,13.9882698 L6.35,12.9372434 L4.85,12.0363636 L2.45,13.2375367 C1.85,13.5378299 1.85,14.288563 2.45,14.5888563 L13.55,20.5947214 C13.7,20.5947214 13.85,20.744868 13.85,20.744868 C14,20.744868 14.15,20.744868 14.15,20.5947214 L25.4,14.5888563 C26,14.288563 26,13.5378299 25.4,13.2375367 Z M25.4,18.4926686 L23.3,17.4416422 L21.65,18.342522 L23.45,19.2434018 L13.85,24.4985337 L4.4,19.2434018 L6.2,18.342522 L4.55,17.4416422 L2.45,18.4926686 C1.85,18.7929619 1.85,19.543695 2.45,19.8439883 L13.55,25.8498534 C13.7,26 13.7,26 13.85,26 C14,26 14.15,26 14.15,25.8498534 L25.4,19.8439883 C26,19.543695 26,18.7929619 25.4,18.4926686 Z" id="Shape" fill-opacity="0.4"></path>
                        <path d="M0.6,7.03343109 L11.7,13.0392962 L12.3,13.0392962 L23.55,7.03343109 C23.85,6.88328446 24,6.73313783 24,6.43284457 C24,6.13255132 23.85,5.83225806 23.55,5.83225806 L12.45,0.126686217 C12.3,-0.0234604106 12,-0.0234604106 11.85,0.126686217 L0.6,5.68211144 C0.3,5.83225806 0.15,6.13255132 0.15,6.43284457 C0.15,6.73313783 0.3,6.88328446 0.6,7.03343109 Z M12.15,1.62815249 L21.6,6.43284457 L12,11.5378299 L2.55,6.43284457 L12.15,1.62815249 Z M23.4,11.2375367 L21.15,10.1865103 L19.5,11.08739 L21.45,11.9882698 L11.85,17.2434018 L2.4,11.9882698 L4.35,10.9372434 L2.85,10.0363636 L0.45,11.2375367 C-0.15,11.5378299 -0.15,12.288563 0.45,12.5888563 L11.55,18.5947214 C11.7,18.5947214 11.85,18.744868 11.85,18.744868 C12,18.744868 12.15,18.744868 12.15,18.5947214 L23.4,12.5888563 C24,12.288563 24,11.5378299 23.4,11.2375367 Z M23.4,16.4926686 L21.3,15.4416422 L19.65,16.342522 L21.45,17.2434018 L11.85,22.4985337 L2.4,17.2434018 L4.2,16.342522 L2.55,15.4416422 L0.45,16.4926686 C-0.15,16.7929619 -0.15,17.543695 0.45,17.8439883 L11.55,23.8498534 C11.7,24 11.7,24 11.85,24 C12,24 12.15,24 12.15,23.8498534 L23.4,17.8439883 C24,17.543695 24,16.7929619 23.4,16.4926686 Z" id="Shape"></path>
                    </g>
                </g>
            </g>
        </g>
    </g>
</svg>